<mxfile host="app.diagrams.net" modified="2021-09-03T17:29:17.098Z" agent="5.0 (Windows NT 10.0; WOW64) AppleWebKit/537.36 (KHTML, like Gecko) Chrome/93.0.4577.63 Safari/537.36" etag="jxnogDPV0kFaR2zQbxIz" version="15.0.6" type="github">
  <diagram id="Fmpa-COd6J_b_fzYQaFG" name="Page-1">
    <mxGraphModel dx="1664" dy="716" grid="1" gridSize="10" guides="1" tooltips="1" connect="1" arrows="1" fold="1" page="1" pageScale="1" pageWidth="1169" pageHeight="827" math="0" shadow="0">
      <root>
        <mxCell id="0" />
        <mxCell id="1" parent="0" />
        <mxCell id="pyuiP2n4TVAtCu8Zxtwx-1" value="" style="shape=image;verticalLabelPosition=bottom;labelBackgroundColor=#ffffff;verticalAlign=top;aspect=fixed;imageAspect=0;image=data:image/png,iVBORw0KGgoAAAANSUhEUgAAAtEAAAGvCAYAAACdCYkrAAAAAXNSR0IArs4c6QAAIABJREFUeF7snQl4FFX29k8SAkmARCDsOwIBZFEEl2EHHQUdHUVhFJjxLwwgIIoILoigCCqrICg44iyAiiO4AjIqso4iiMMiENn3LSyBkIQt+Z5zsfqrdLrTy73VfavqrefhMSZ1bp37O7duv3361OmY9u3b5y9fvpz4GD16NI0aNUr8/NJLL4n/x+/BIRLrQSw0DY8OHToQ7g/sB9gX8fqA10PsA9gHsA947wMxRJSfn5+voXyBSyAQfQIxMTF8g0TfEXgAAiAAAiAAAiCgFYGY0aNH5xvvrrTyDM64ggB/4qHz+tPdP1csEkwSBEAABEAABDQjwPogBmlozaLiMneQ6XVZwDFdEAABEAABEHAAAdYvENEOCKSdpwARbefowXcQAAEQAAEQcCcBIaJRzuHO4Osya93LJXT3T5c4wg8QAAEQAAEQcBMBUc6BBwvdFHLMNVQCyJSHSgzngwAIgAAIgIA7CEBEuyPOmGWYBCCiwwQHMxAAARAAARBwOAGUczg8wLpPT/dyCd390z2+8A8EQAAEQAAEnEjAFd05cnJyaMiQITRr1iwRwzvuuIPmzZtH5cqVi2hM16xZQ3PmzKEpU6ZQYmKi59qGf7169aJWrVrRmDFj6MUXX6R+/fpRhQoVKC0tjXr06BFRXyN5MWR6I0kb1wKB6BBIT0+n7t2704wZM8Q+xwfvdXXq1PHsb8Y5w4YNK/C7wYMH07Rp08ReyHt3z549PZOYO3du2Psj78mtW7f2OZa//ToYeidPnqRBgwaJLytjn8M9eK6rVq0q9JoR7niwAwEQUEvA8d05eDNjAcoC1RCivDkOHDiQ5s+fL7XBhRqKYDZlFtTcM7l3797CN+8XmVCvaYfzIaLtECX4CAJyBHgvM46RI0eKH1kk7t69m4z/5z3y5ZdfpmbNmolvzOVkg3nfXLhwoUhEGEkQX/t7sF56vw4YyYw2bdqI14pg9mt/14KIDjYKOA8E7E3A8d05vDdpI1zm3xubZXJyMk2YMKFApto7i7169WqRReGMCWcZUlJSPBlu42/eNkamxN91kpKSRKa8W7du9NFHH3nG42w0v6DwIZNt0X2J6l4uobt/uscX/oEAi8oRI0bQU089JZIERobW2EenT58uPhlkod20aVP68MMPPefwXs0HC1tDiBui2xDioWZrvQWzESGzP9u3b/d8cjhx4kRPxtzfJ4c8Bu/XTz/9tOeTT34zYCRrjE8Yzfs5X4+z7Hzwi7H3J6RFZaKNrP3GjRsLfbpqZOv5+r///e+pdOnS4o2K2cbsG1YoCIBAeAQc3Z3De7MzI2JBy5sabza8WfJHeoZQNW/U5p/NmQseiz+aND525PMOHTokPnbjbImRXTFePMaOHeu5Dovt5s2bi422atWqnk2Xs+XG782lHeaPO8MLM6xkCCBTLkMPtiBAIqu7bNkyIeTMotj8yVuNGjU8n8JxMqFjx46F9kOj/IJL3bzL4kLhbIhXo0TEl605E+1PRLOdUaLHPxufIqamphYo5zCL4f3793vKWvg87xIXsy/+RLR3Bt78+sPjG+UvPD6/+eDEjyHujdcWc0xCYYdzQQAEChJwbHeOokS0d8bBENScDTH+xlmFxx9/XGz8vAmZx+PNyVyn5/2Ro/kjSgO3WbjzdYxsuHlzg4jW7/aEiNYvJvDIXgR4f2VRbHyKN3v2bE+5hlGy1qJFCzJ+v2HDBiG6BwwYIDLYnIQwnmHx/qQvHEHtnQFXIaLNz7mYyzn4zQEnTIwyEb6Wec7m1xFvP/yJaG//zW8K1q9fX6BExtfrjFGTbq9VBG9BQE8Cju3OEYqINj/w5y2ily5dWiBynLHmDZ8/kjQ+hvSunzN/dGeUeXifAxF9Favu5RK6+6fntgKvQOAqASNrat5HzaUERkaURfbevXtF5pT3YBbUDz/8ML3//vsewe2Lqa8SD38ldYa9qkw0i1Hzg47Gp5m+RLTxYLvhAydpuITP/DoSrIj2TsiYr8dZfD581Z2bYxGtB+xxX4CAkwg4vjtHsDXR5ky0sUG9+eabokuGryesvTMB/h5CMW9uGRkZBbpzQERfvZWQ6XXSloK5gEBBAr6yqeZ9mffIt956i86dO0f33nuv51M/LqHg+uisrCwhrL0fujauEs4DgP5qor3L74zkirmcwxCixieUhh/mpE2DBg085RxGJtooozDTCZQRV5mJNteRsw/hcMPaBgEQKEgA3TnS0sRmwjXRRsbYX020uUUTl3P4y0R7b7jGx5HmB1X4oz+IaIhobEgg4GQC/sSqOZPKD1ZzLfHZs2cLlG1wzTMLaM7WGm3ivEWlMT4/W+ItEgNx9dedwxjLuybaeOaFS02M1wvOnBule2aRX1RNdHZ2tqdjlPcnmsFmosOpiebSGHPbPdREB1oh+DsIBCbg+O4cjCBQn2jeTLgsgw9+KtxcY+fvY8GiMtHGJml8fClTzmF8VIjuHIEXs1VnoJzDKrIY1+kE/JVNeItAXxlX75IFg5V3n2guiwhVQJuz2OY+0eaxzCLavKfzw+Qs+M0PghulGsY+bbxu/PDDDz67cxjXCSYTbe6JzX4br0/GA4pFdefgkg3+x29GmJGRMOJxUM7h9LsP84sEAUd35wgWID7WCpaUO89DuYk7445Zg4DdCfj7JMDu84L/IKATAcd25wgWMkR0sKTceR5EtDvjjlmDgB0JmLPN7L9Mpt6O84fPIBBpAo7tzhFpkLheeAR0L5fQ3b/wqMMKBEAABEAABEBAhoDju3PIwIFtZAgg0xsZzrgKCIAACIAACICAOgKO786hDhVGsooARLRVZDEuCIAACIAACICAVQRc0Z3DKngYVw0B3csldPdPTRQwCgiAAAiAAAiAQCgE0J0jFFo415UEkCl3ZdgxaRAAARAAARAISMD13TkCEsIJriYAEe3q8GPyIAACIAACIOCXALpzYHFElYDu5RK6+xfV4OHiIAACIAACIOBSAujO4dLA6zRtZHp1igZ8AQEQAAEQAAEQCIYAunMEQwnnWEoAItpSvBgcBEAABEAABEDAAgLozmEBVAwZGgHdyyV09y802jgbBEAABEAABEBABQF051BBEWM4mgAy5Y4OLyYHAq4gcODAAdq7dy/t27ePDh06REePHqXjx49TRkYGnT59ms6ePUtZWVmUnZ1Nubm5dOnSJbpy5Qrl5+cT74HFihWj+Ph4SkxMpKSkJEpOTqaUlBQqW7YslS9fnipWrEhVqlShatWqUc2aNalOnTp0zTXXuIItJuluAujO4e74Y/YBCEBEY4mAAAjYhUBmZiatX7+efv75Z9q0aRNt3bqVtm/fLkQvC1sWuFWrVhWCt0KFCpSamkplypQRgrhUqVJCICckJAjBHBcXJ6bNQpoF9cWLFyknJ0cIbRbdZ86coVOnTtGJEyfo2LFjdPjwYTLE+u7du6lkyZKUlpZGjRo1oiZNmtD1119PN954IxUvXtwuOOEnCAQkgO4cARHhBCsJ6F4uobt/VsYGY4MACOhNgEXzt99+S8uXL6fVq1fTtm3bqGXLltS8eXNq1qwZXXfdddSwYUMqXbp0xCfCojo9PZ22bNkiBD0L+w0bNtAtt9xCv/vd76ht27bUsWNHId5xgIAdCaA7hx2j5jCfkel1WEAxHRAAAUsJcEnGp59+Sl9++SWtWLGCbrvtNurQoYMQpTfffLOl15YdnMtEvv/+e1q1apUQ/vwG4Pbbb6e77rqL7rnnHqpVq5bsJWAPAhEjgO4cEUONC/kjABGNtQECIAACRRPgMor333+f5s+fL8o17rvvPiE6u3TpIkov7HpcuHCBlixZQl988QV98sknotzjoYceop49e6Lsw65BdZHf6M7homDrOlXdyyV090/XuMIvEAABeQI7d+6kd955h959912Rae7Rowc9+OCD8gNrOsKCBQvoX//6l8hW9+3bl/r37y8eVsQBAjoSQHcOHaMCn7QigEy5VuGAMyDgCgL79++nCRMm0KxZs+iJJ56ggQMHuqrUYceOHTRt2jSaOXMmDR06lJ555hnxACQOENCNALpz6BYR+KMVAYhorcIBZ0DA8QQmTpxIL774Ig0aNIheeOEF0VnDrQc/nDhmzBhRA/7KK69Q79693YoC89aUALpzaBoYt7ile7mE7v65ZZ1gniDgdAL8wOCAAQNES7nJkydTgwYNnD7loOfH5R1PPvmkaJnH2WluxYcDBKJNAN05oh0BXF808ucXDRwgAAIg4FYCP/30E3Xr1o0eeeQRGjlypFsxBJz34MGDxYOV/IBl9erVA56PE0DASgLozmElXYwdFAGI6KAw4SQQAAGHEuAvJuEWdSye+/Tp49BZqpsWl3VwN49ly5aJL3TBAQLRIoDuHNEij+t6COheLqG7f1hKIAAC9ibQuXNnateuHT377LP2nkgEvefSDv7GxH/84x8RvCouBQIFCaA7B1YECAQggEw5lggIgIBVBLgsYfr06eLLR3CERoDro9966y3q1KlTaIY4GwQUEkB3DoUwMZTzCEBEOy+mmBEI6EKAvzCle/fuov8zjtAI8JuPH3/8UfSVxgEC0SKA7hzRIo/rCgK6l0vo7h+WEQiAgH0JlC9fnrZs2UIVK1a07ySi5DnXknMZzIEDB6LkAS7rdgLozuH2FaDB/JHp1SAIcAEEQCDiBLgrUWxsLLoTSZBHkkMCHkylCaA7hzRCDCBLACJaliDsQQAE7EqA97+jR48iEx1GAI8dO0aVKlXCm5Aw2MFEDQF051DDEaNIENA9k6C7fxLoYQoCIBBlAvwiPHfuXNREhxGHefPmUc+ePSGiw2AHEzUE0J1DDUeM4mACyJQ7OLiYGghEmQDvL61bt0Z3jjDi0KZNG1q9ejVEdBjsYKKOALpzqGOJkRxIACLagUHFlEBAEwK8v9x5553oEx1iPF577TVasWIFffXVVxDRIbLD6WoJoDuHWp4YLUQCupdL6O5fiLhxOgiAgEYEWETv2rUL31gYQkzeffddGjNmDH333Xd07bXXQkSHwA6nqiWA7hxqeWK0MAgg0xsGNJiAAAjYgsDPP/9MN9xwg19fjf3vp59+om7dutEjjzwivv4bh28CLJ75Wwo/+ugjuvHGGwmvH1gp0SSA7hzRpI9rCwLYBLEQQAAEnEiAv42Qv0Tl1ltvpccff1yIZO/DvP/t27ePBgwYIDKrkydPpgYNGjgRS1hz2r59Oz311FPi9YK/pbBmzZp4/QiLJIxUEkB3DpU0MVZYBHQvl9Ddv7CgwwgEQCAiBDp37izqdkuXLk3x8fH06KOPUr9+/ahu3bp+ReDEiRPpxRdfpEGDBtELL7xAycnJEfFVx4ucPXuWXnnlFfHV6C+//DI9/fTTBdxEEkbHqLnHJ3TncE+sMdMwCWCTDhMczEAABGjbtm3UuHFjysvLEzRKlCghsqncWYJLNzhTzZln72P//v00YcIEmjVrFj3xxBM0cOBAqlWrlmuI7t27l2bMmEFTp04VbzqGDRtGNWrUKDR/7M+uWRLaThTdObQNDRzTgQA2aR2iAB90JXD77bfTN998o6t72vrFYvq2226jRYsWFflg3M6dO+mdd94hfpiubdu2QnQ/+OCD2s5L1rF///vfxP2fV65cSX369KG+fft6sva+xsb+LEsc9rIE0J1DliDspQjoXi6hu39S8GEMApIEEhMT6fTp05SQkCA5knPNuSb6hx9+EBMsVaqUKO2YMmUKde/ePehnQnJycuj9998nrrNev3493XfffXTPPfdQly5dRJmIXY9Lly7R4sWL6fPPP6dPPvmEWrRoIbg8/PDDxGsr0AERHYgQ/m4lAXTnsJIuxg6KADbBoDDhJBDQkgALnTNnzogyBRyFCWzZsoVuvvlmys7OpmLFionSDC7T4H2Pj3D2P34A8dNPP6Uvv/xS9ErmjHaHDh1Eppqvpfuxdu1akWnmFnX8KUa7du3o7rvvpj/+8Y+eBwaDnUM4/IIdG+eBQCAC6M4RiBD+bjkBbIKWI8YFQMAyApyBzszMhIj2Q5iF4dKlS8W3Ek6aNImaNm1a4EzZ/Y/Zf/vtt7R8+XLx7X1cg92yZUtq3rw5NWvWjK677jpq2LChyH5H+jh37pzw55dffqGNGzfShg0baN26dcIf5tG+fXvq1KkTpaSkhO2aLL+wLwxDEPjtTTDKObAUokpA93IJ3f2LavBwcdcTgIgueglwCcahQ4fEg3G+DtUikEU1l3twf+pNmzbR1q1bidvDcYePOnXqiExv1apVqUqVKlShQgVKTU2lMmXKCCHLpSZJSUmiNIdLROLi4jwuX7lyhbj0Ijc3V2TVs7KyxJsnLuXJyMig48eP0+HDh8VcOVO+e/du4s4a3KavUaNG4s0D98vmcg0Z0ezNUDU/19/QABASAXTnCAkXTnYjAWzSbow65hwsAYjoYEn5Pi9S+8uBAweIO16wwGWhe/ToUSF8WQCzEGbBy8KYBTILZRbMLJy5cwj7yIKahTXHm4U2C24W5izAWYizIK9UqZIQ6CzUuZNI9erV5eAEYR0pfkG4glNcSgDdOVwaeEw7OALYpIPjhLPcSQAiWi7uuu8vhoiWm6V11rrzs27mGFkXAijn0CUSLvVD93IJ3f1z6bLBtDUhwA8Ucu1r8eLFNfHIXm5ABMrFC/zk+MFajgC6c8jxg7UCAtgEFUDEECAQJQIQ0XLgddn/0tPTRWs5fgCQD/6CE27DZ7SZGzNmjPgWRT7mzp0r+lXrcOjCTwcW8CHyBNCdI/LMcUUvAtgEsSRAwL4EIKLlYse9nrlHcjQPQ0DzNwS2atVKuMKimWunWUhzV41ly5bRyJEj6eTJk0JA88/GudH0XQd+0Zw/rh1dAkJEjx49On/UqFHR9QRXdy0B3csldPfPtQsHE9eCAES0XBj44Tx+6E9lx4pQPVqzZo0QzfxNgeXKlRPmLKwHDx5M06ZNo7S0tAJD8rnc6SPa2WjuDsIPL/JDkThAIBoE0J0jGtRxTVsRQKbcVuGCsxEmwCKauzrY+VvzIoyswOW4V/Lw4cPFNw9G6zCyy9yxg78R0Vs0m/3SKRPN33Q4fvx40SMbBwhEiwC6c0SLPK5rCwIQ0bYIE5yMEgF+oPD8+fMQ0WHy5xIK/ua+jz/+OMwR1JlxJrpnz55iQP6iFm9Bbfzdu15anQehjfTAAw+Ib2ocOHBgaIY4GwQUEkA5h0KYGCp0ArqXS+juX+jEYQEC6ghARMuzbNKkCT3//PP00EMPyQ+maARfJR7G0CymV61aVeDBQ0WXDXqYDz74gMaNG0ebN28O2gYngoBqAujOoZooxguZADK9ISODAQhoQwAiWj4UnIm+/fbbxdd3t2vXTn7AEEdgUcyHucaZyzYGDRpEo0ePLlTeUZTADvHSYZ2+YsUKuu222+g///mPyETjAIFoEUB3jmiRx3U9BCCisRhAwL4EIKLVxO6jjz4SIpYzrFymEMnD10OELKznzJkjHjb86quvxNd4c0cOPvjBQj6M/4+kr1z2whl79qtbt26RvDSuBQKFCKA7BxZF1AnoXi6hu39RDyAccDUBfqAwJyeHihUr5moOKib/zTffUN++falr1640YcIEFUMGPYZ3n+g77rijQLcOc5/oaNVEDxs2jBYsWEDvvPOOyETjAIFoE0B3jmhHANfXngAy5dqHCA5GkQBEtFr4J06coGeffZa4ZIFfoKPdRk7t7MIbjbPO3IaXS11ee+01Kl++fHgDwQoELCCA7hwWQMWQziEAEe2cWGIm6glARKtnyiMuWbJEtG/jr1R/8sknPV0zrLmanqPyNyO+8cYbVLp0adEGsHPnzno6Cq9cTQDdOVwd/uhPXvdyCd39i34E4YGbCUBEWxv9Tz/9lGbOnEnbtm2jRx99lP7yl79QrVq1rL1oFEffu3cv/fOf/6T33nuPGjZsSP3796c//vGPUfQIlwYB/wTQnQOrI+oEkOmNegjgAAiETYBroS9cuEBxcXFhjwHDwAR+/PFHUaPMDx42btyY7r//fuKvvK5Ro0ZgY83P2L9/v/jq84ULF9KWLVvEg4NcxnLTTTdp7jncczsBdOdw+wrQYP4Q0RoEAS6AQJgEIKLDBCdh9tlnnxFnqL/44gvx9dvcHq9jx47Utm1bW3zpzaVLl2jlypW0bNky+vrrr0Xnjz/84Q8i43zvvfdKkIEpCESWALpzRJY3ruaDgO7lErr7h0UFAtEkABEdTfokvvKa+0vzf7l/86233kotW7ak5s2bi28d5Kx1ND8luHLlisgub9y4kTZs2EDr1q2j77//nlq1akX8leedOnUS/8UBAnYkgO4cdowafI4oAWTKI4obF7MZAYhofQKWm5tLP/zwA61fv14I1k2bNtHWrVupfv36VK9ePapduzbVrFmTqlWrRpUrV6aKFStSamoqlSlThmJjY0OeSF5eHp0+fZoyMjLo2LFjdOTIETp48CDt27eP9uzZQzt27KBff/2VGjVqRE2bNhXCvkWLFnTLLbdQQkJCyNeDAQjoSADdOXSMCnzShgBEtDahgCMaEuAs58WLF6Oa7dQQizYuXb58mbgH9M6dO4Ww5frjQ4cOCcF7/Phx4m8mZCGcmJhIpUqVoqSkJCpRogTxl+hwbI39jzPKHGeuf8/OzqasrCzRH5wFeLly5ahChQpCmFetWlXUabNgr1u3rvi2Qzf3EP/i693arAUdHWmcVo5q10jR0bWgfUJ3jqBR4UQrCOheLqG7f1bEBGOCQLAEWGhxjWs4mcxgr4HzrCfArfRYGLNAZqHMMWUBnp+fL4Q0C2HuxMICm4U2C25uPYejaAIvTfyeRk/6Hpj8ENi9tretRTS6c2BpR50AMr1RDwEcAIGwCUBEh40Ohi4gABFddJDtLqLRncMFN7HuU4SI1j1C8A8E/BOAiMbqAAH/BCCiXSCiR48enc9fqYkDBKJBQPdyCd39i0bMcE0QMAhARGMtgABEdLhrwO6ZaHTnCDfysHMNAWTKXRNqTDQMAlwLzQ+d8X2CAwRAoCABZKKdnYnm2aE7B+56ECiCAEQ0lgcI+CcAEY3VAQLIRIe7BuyeiRYiGuUc4YYfdioI6F4uobt/KmKAMUAgXAIQ0eGSg50bCCAT7exMNLpzuOEu1nyOyPRqHiC4BwJFEICIxvIAAWSiw10Dds9EoztHuJGHnTICENHKUGIgEIg4Ab5/+ZvrUBMdcfS4oA0IIBPt7Ey0ENEo57DBnehgF3Uvl9DdPwcvDUzNBgTwJtgGQYKLUSMAEe1sEW277hyLFy+m9957j1auXEknTpyI2o2h64XLly9Pbdu2pUcffZS6dOmiq5u28stOIgH3R9FLy+73B+KL+Npq81TsrB3vX4hoZ4tonp1tunP079+fVq9eTU899RR17tyZKleurPgWtf9wR44coSVLltDkyZOpdevWNHPmTPtPKsozsIuIxv0ReKHY+f5AfBHfwAScfYYd71+IaBeIaDuUc/ALSGZmJn3wwQfO3iUUzu6hhx6ilJQU7YW07uUSuvvHSwb3R+g3jl3uD8Q39NiyBeIbHje7WNklvhDRzhbRtujOwR9hDh8+nLZs2WKX+1sbPxs3bkzjx4/XurTDLplebYLq5Qjuj/AjY4f7A/FFfMMn4GxLO9y/ENHOFtG26M7xwAMPCBHIdb44QiPA9eP8Ivzxxx+HZhjBsyGi5WDj/gifnx3uD8QX8Q2fgLMt7XD/QkS7QETrXs5RoUIF2rhxI2qgw9gPuYasWbNmdPz48TCsI2Oie7mE7v7h/gh/ndrh/kB8Ed/wCTjb0g73r1lE16yW7OyABDm7fQfPes60e59oW3TnQKYyyJXp5zTwczY/xBfxlSPgbGvd7w/d/dN9dejOzyyiu3SqTYvm3qc7Ukv9yziVQ+Wve9sxIponon13Dt1vEktXnILBwU8Oou78dPdPjr711rrz090/6yMkdwXd+enunxx966115wcRXXANOFJE617OoftNYv02IXcF3fnpXi6hu3+6x1du9VpvrTs/3f2zPkJyV9Cdn+7+ydG33lp3fhDRzhbRtujOoftNYv02IXcF3fnp7p8cfeutwU+Ose78dPdPjr711rrz8+XfmDFj6MUXXywEZ+7cuXT//ffTkCFDqFevXtSqVauQAaanp9Po0aNp+vTplJGR4fm5XLlyIY9llYHZx0B+6R5fiGhni2hefzH5+fn5Vt0MKsbV/SZRMUcrx9CdX7D+5eTkiBePNm3aUI8ePaxEZquxg+Vnq0lF0Fnd+enuXwRDFdaldOfnT0TzZEeOHFlozsY+qEJEBxKoYQFXYAQRrQCipkM4rZxDiGiUc2i62hS5pfuLiO7lErr7p3t8FS1jy4bRnZ/u/lkWGEUD685PVkSvWbNGfDutcfC3+nKG2hDbs2bNEn/iLPadd94pEhBLly6lO+64g3hve+ONN0RWmgU1i9fu3buLblj9+vWjKVOmCFtOXpjHMZIY5msb5ycmJtLJkyc912H7l19+Wbwh4PEHDx4sxuR5z5s3T/xs9ol/Z2TIb7rpJvENxdxhav78+ZSWllZoVegeX2SiC4bMaSIa3TkUbdQ6D6P7JhMsO3MmukWLFp7N3rzBmjdvfpHgDTkpKUm8CFStWtXzEanxQhPMtXXnp7t/wTCO5jm689Pdv2jGLphr685PRkSnpqYKUTpt2jQhMHm/W7VqlRC/CxcupN27dwvxyvviiBEjaOzYsQVKOMzlHMxy0KBBoryDx+KSkjp16gjE/sYxrl2jRg3PHvv0008X+MTQEM7sIx8s0mfMmFFA6BtZdfafr9WtWzdx3rBhw4TAZl8OHTok5sUi3XzoHl+IaGeLaPGGkIi0rujQ/SYJZiOP5jlO4WcW0bzR8gbPG6yx8Xpv3sYLyrhx4+j5558XIppfUMwvNN4bsq846c5Pd/+iufaDubbu/HT3LxiRsjtlAAAgAElEQVTG0TxHd37+RLR3TbSRLDAEq69yDs4Mz5kzp5CINvP3VxO9fft2j615XzT2V+/SEu991Hxtsz0LeEOcsx9m0e+vbMMsvFnQ+xvbyGjrXJEKEe0CEY1yjmhu8dZfW/cXkWDLJcwiulatWuIjTO8stDmTYmzQEydOFJkMo5a6qA3ZVzSC9c/6SPq+gu7xjRaXYK+rOz/d/QuWc7TO052fTCaayza8H0I0l1WY/2Z8+uZPRH/11VeeLLZ3csHXOCyie/bsWSCsxqd/LMjNJSbGPs0nGw81cvkI78U8No9lrs/2FtcQ0dG6e9Rf15HlHFqnoX+rndL5nab6ZaZ2RDu+iPgi4OvBQmMj5xcOzpRwNtr4OFKViFYbDfWj6R5f9TNWO6Lu/HT3T2001I+mOz8ZEc20zCI02Gywr+4c/jLR5oiYs8rr16/3lHl4n8OfEPJ+zCLfOxNtFtFFZaK9xbaRYUc5h/p7JJIjOk1E8/3rqu4chhAzPtpXtXj8vaNWNb7MOHZ8EQkkormco2PHjmKTNl44jLINI+PsXc4RbiZahr0K20mTJlHfvn2pdOnSPoeLRHy9P15lR4yHkLp27eqzi4DhrPHwEWejnnnmGVqxYoXP2kYVrMIZIxL8ivLL6vj6il04nALZhNJRwddYoX5CFMgf4+92jC8LYz4Cdecwi2jj2Q/+HdcO8ydwRslbMDXRXB9tLrUwfODx/I3jfT7XLbPPvXv39oho3ocnTJggHgzkwyyOjWdYDMFt7NmPPfYYvfbaa54HHnXORAe6f1HOUfBOdaSIdlM5h3Ezclj5IQtVLX4gooN9SSt8XrDlEuZMtPkp82AfLAxXRAfrX/gEirbkzMuVK1do6NChorbbW0xHQiR4CzFDQBsPCBU1A/MT+FYJJRn2keBXlH9WxxciOoYf+pFZIlK24cTXX59o7nJhPPvBNdHNmzf3dM7gfZD3qg8//FCITz6Mrhf8s1HOYQhX/p13dw5f3Tays7N9jsP25vONUg5+TTWXenBXjw0bNoi+1vwgpFlE8xjmjiDGGN79q3UW0YHiCxHtbBHtuu4cvDlxBnPZsmWed9fGZsAfFyUnJ4t3zd6dHXizeuutt0TrH24V5N2n2FtE+2o7ZGx45gdCjCegjQfkjBqzolr6hLqjR1skhOqvv/Nl+6OG60e0+U2dOpWeffZZysvLE22huNOIWUxHwj+zEOMXQvPHtQZX8wunsX75I19jTbMA4HvP+FiW7YyuKcYDn1as/0BxjwS/onywOr5FiWjvNmjmrjXmPYxjZ3RHMOJWVOs0XgvedbFFtV7j9WQIJe89WDbR4fT4BlrfTv+77vGFiHa2iObZuaY7h/dHWrNnzxbvxPmdpPGCYQhk46Ms413/3r17xbtr74+8jOVhFtHe5xTVdsh4EI5tzLVtRX2cF+qmGO1NJlR/fZ1vvNgbcZB9YQ3FJx348XxPnTol3C5evHgBMc2iw+pMmyHEuGMAr01+I2h+I+n9JtK8fs1P9xtCiT8F4pZbxhvKouxDiVU45zo9vkWJaHPrMM4WDhw4UHzsbn6jZLz5Z7ahtE4LtfWaIbpZbBvXVFF25/T4hrPmnWSje3wnz9pCoyd9L5B36VSbFs29z0n4Q56L08o5hIh2SzkHv1BzBpqzXizKRo0aJWq3jBY6ZhHr76E0BmbOHvsS0d4Cz/xRFL9QGdcp6kEOf22FQl6xvz2YGY4dbPQmEB8fT/fccw8tWLAgIiLa+BIGpuLr0xgzLfP69SWiWfhzttrfN0+qXP+BosgvwjoequLrT0R7f7Lj3f3G/CBXqK3TitoDzf2Lzdy930ipWgNOj6+OazeSPuke3ya3DIWINi0Ip4loUc7hlu4cvurMDDHgXXPlLaL9lWD4E9H+2g5xfZmRff7oo488JSXeH6vyuMa3PMluSDq8Uy9qDrr7J8tfhT1nBvmTFD6ilYk2vvzA+KIbcz10UevXW0Rz6ysuBdi5c6fnkyAr138g/jqsPyvj609Eez/UZU4Q8M/Gl3YYn9SZRXWg1mksokNtvea9B6sU0VZ/UhNojVkZ30DXdvrfdb9/kYkuuAKdJqJd053DX3cB4yEHzgp7twri/+eSD3OPYX9f+GHOovgay/sFqGLFikJEGJlw78b1ql5AxEcNMdF9sCbQJq67f4H8t/rvXDP73HPPiYcLdaiJ9vXJTVHr11cm2rt7gJXrP1B8or3+rI6v6kx0UV+kUdR+6qtFmbn9GZe0mc9RtQc6Pb6B1rfT/657fFET7QIR7YZyDl/fUmfOxHCYOUNmPPziXRPNf+cX/v3793vaAJn7ZJrHN5dseLcdMtdfm5vim+2Np6G5fZuvFkehboqR3mRC7cAQbPcLc5eHUBkY5/trw2V+MWeRaD6C9S9cnwLZBXr6OxLx9SXEzPW0/BG9kbn0Xr/+RDTfS4boMn/Rg+r1H4hvJPgV5YPV8VVdEx1M6zRzIiHY1mve5W1OEdFWxzfQ+i7q7+bOGObziirX8rWHGq+lS5cuJfPrmoxvwdrqfv9CRDtbRLuiO4evL+kwwmoIgW7dutHf/vY38WtuEWRsBPz/RgcB42tYfT1lbu6mYf5o2rvtEH/MaWw45oezzJsQdwbhPplLlixR0k830ptMqCI6mM3Su4Y9GBtf54TTijDS/Lz9DtSHNBL++RJixprlb480esPyi6j3+jXXwPr7yH7AgAGeNlqq13+gtRIJfkX5YHV8fQkl76+QNjpt+OrOwedyfDg5wIkEfy3PzK3TjE/weNxgW685tZzD6vgGWt+h/D3Q/mispUqVKnm+ZdD79VXlQ/HB+K77/QsR7WwRzbNzTXeOom5If8IvWm3Vgtk8gj0n0puMmaXxJsR4MeUn/znTa36jwW9YMjMzRVaSD+MBNu/+z9xi8NFHHxV9Ujt06CDe6PA5XJvLGzcLOCODYn5TYoxjdBzg87jenL9AgLOn3PHjvvvuo+XLlwsfatSoUaD3Krc15JpKX20L+dMCc2u3SGdhxA2seblOsOs0Wufpzk8H/yItjFSuBR34FTWfSPjn75kf7idtPAQa6LWOx+DuLeZe1EZSyHjOx1epl8pY+horEvxk5gAR7QIR7YZyjkA3AUR0IELB/93Mkj/65YMzleYsh/nje96Af/rpJ9Fay/ywpXcZAHdWMTKWRqkLv7jzuHyuMabxzYXm9mlGraW51IbP598bZSLGCwGX6RilCXz+k08+SStXrhSZOL4uH4Zv7I9hZ4hv80OowVML/0zdX0TCn1lkLHXnFw3/vLPX0XhzqCr60eAXiu+R8M+7XM1XqUywnyB6l3P4+n9ze8NQWIRzbiT4heOXYQMR7WwR7aruHDI3gp1tI73JGJuxt5g1NnL+4pC3336bjG8QZP/+9Kc/iSwwP1zEteneXzZjfElOgwYNCnzRh696W3NpgRE3YzxzP27vOlxfXVO84+79BRR8LaMLQbSERqTja+d7wY6ZLMRXbsXpzi8S/plLLu6//37xSZv5zX6gLLQ5At6i2bsEJFLfkGn4FAl+MisQItrZIprXn2ta3MncCHa2jfQmIyOijYf6jBIJFqaGUOUv6ODD/G15/kQ0l3ywKPd+SNBfNtxf60Ej7saLDP+/9xdO8O/M5SmBeiirXkuRjq9q/6M9nu78dPcv2vELdH3d+UXKP2Ov5Od/fH31tvfv/HFFJjrQiiv4d4hoF4holHOEdlPY7exIbdIGF9lyDv5qaC6bMMbhhyz5BYA/NjEeamJhbdQj796921MuwuUZRgbc+LYzf+0H/WWivcs5HnnkEVEvbXxTn/nb1Licg795jwW+0RuXa639fYmIFWsn0vG1Yg7RHFN3frr7F83YBXNt3flFyj9D/PKnfps2bSrQ+SmUTijeItq7VCTQw4nBxCyUcyLFLxSfzOdCRDtbRLuiO0e4i98pdpHeZGQeLDQ//GeUYLCoNTLQ3l8Q4a99mrmDgLk0xKj17Nq1q+fBQqPjgPnhGO8viuAHC43suHe3Aq6V5hIUPqJR0hHp+DrlvjDmoTs/3f3TfT3ozi9S/pk/LTN3YeH4+foW3mAz0W7vzhFo/UNEO1tE8+zQnSPQXWDzv0dqkw4XU6QzF6H6qTs/3f0LlXekz9edn+7+RTpeoV5Pd36R9I8TAcbD1IG6cvjrnY8+0aGtQIhoF4holHOEdlPY7exIbtLBsjG3hWMb78xIsONE4rxof9lKoDnqGN9APuv0d9356e6fTrH05Yvu/HT3D/GVIwAR7WwRje4ccveHLax136R190/3IIOfXIR056e7f3L0rbfWnZ/u/lkfIbkr6M4PItrZIprXH7pzyN3D2lvrvsno7p/uAQY/uQjpzk93/+ToW2+tOz/d/bM+QnJX0J0fRLQLRLTu5RwVKlQg/ta4ypUry91tLrQ+cuSI6Ll8/PhxbWeve7mE7v7h/gh/advh/kB8Ed/wCTjb0g73L0S0s0W0LbpzPPDAA9SlSxfxlc84QiPw3nvv0eLFi+njjz8OzRBnewjonunA/RH+YrXD/YH4Ir7hE3C2pR3uX4hoZ4tonp323TlYBA4fPpy2bNni7B3Bgtk1btyYxo8fL96E4AiPgO4iGvdHeHFlKzvcH4gv4hs+AWdb2uH+hYh2gYjWvZyDQ9C/f3/KzMykDz74wNm7gsLZPfTQQ5SSkkIzZ85UOKr6oXQvl9DdP9wf4a1Ju9wfiC/iGx4BZ1vZ5f6FiHa2iLZFdw4jBCykuRXaU089RZ07d0aNtI89kmvElixZQpMnTxZfAKK7gBYfhcTEEH+ZCQ45Arg/AvOz4/2B/S9wXI0zEN/gWdnxTDvGFyLa2SLaFt05zCHgjza5DmrlypV04sQJO+4Dlvpcvnx5atu2ragft0sJB0S0uiWB+6Nolna8P7D/BX9/IL7Bs7LjmXaML0S0C0S0Hco5dL3hc3Nz6R//+Ac98sgjlJCQoKubWvule7mE7v5pHVw4BwIgYFsCeZfO0ZEVj1Dldv+g2PjStp1HNB2HiHa2iLZFd45o3gCBrv3JJ5/Q119/Tbfffjvdd999gU7H321IAJlyGwYNLoMACEgTOLHuOTq1eRKVbTKUyrd8VXo8Nw4AEe1sEc2z0747h643Hmehhw4dSpcvX6ZixYrRpEmTkI3WNVgSfkFES8CDKQiAgC0JcBZ6x9zylH/lAsXElaB6PY9TbHyyLecSTachol0golHOEd4ttnDhQvr22289Ivq2225DNjoMlLqXS+juXxjIYQICIAACRRI4se55kYXOz7tIMbHFqUyTIVSh5WugFiIBiGhni2hbdecIce1aero5C21cCNno8JAj0xseN1iBAAiAgBUE8i5l0Y55FSj/co5neBbSIhtdPMWKSzp2TIhoZ4to23Xn0OVO41rob775RmShzSIa2ejQIwQRHTozWIAACICAVQQyfn6ZTm2aQCymjUNkoxs/SRVuet2qyzpyXIhoF4holHOEdu9yFpp7VcfGxlLx4sXp/PnzVLJkSbp48SLl5eWJHs3o1BE8U93LJXT3L3jSOBMEQAAEiiaQd/k87ZiTKh6WiimWRFcunKK4EuUo73I2Uf7l37LR1wBjkAQgop0totGdI8gbwXwad+P47LPPRP1zp06dqF+/fjRr1ixRH80Z6nvvvVd068DhDALIlDsjjpgFCIBAYAKntrxB3JWDu3GUbfwkbX83hhr0yafTv0yl4z8+S+VvfJnKNh0WeCCcIQiYRXTF8kmgQkTHTmR7OOxe25tq17B3iRC6c0gua0NESw4Dc00JQERrGhi4BQIgYDmB7e/GUoM+V35r5GX55Rx3AbOIdtzkFEzIESIa5RxyKwEiWo6f7uUSuvsnRx/WIAACIOCfAES03OqAiC6an91FNLpzyN0fwhoiWg4iMr1y/GANAiAAAlYRgIiWI/vF17vlBnC4deO0crYu50B3DgULFCJaDiJEtBw/WIMACICAVQSEiO59hSiGKz9xgAAImAkIEY1yDrlFAREtx0/3cgnd/ZOjD2sQAAEQ8E9g++xYavDoZaKYWGACARDwIoDuHAqWBES0AogaD4FMucbBgWsgAAKWEtg+O44aPHoJItpSyhjczgTQnUMyehDRkgA1N4eI1jxAcA8EQMAyAhDRlqHFwA4hgHIOyUBCRMsB1L1cQnf/5OjDGgRAAAT8E4CIxuoAAf8E0J1DweqAiJaDiEyvHD9YgwAIgIBVBK6K6ItEMXFWXQLjgoBtCaA7h4LQQUTLQYSIluMHaxAAARCwisD22cWowaMXIKKtAoxxbU0A3TkUhA8iWg6i7uUSuvsnRx/WIAACIOCfAEQ0VgcI+CeA7hwKVgdEtAKIGg+BTLnGwXGpa5fO7aUrF066dPb+px1XohzFl64FLgoJsIhOe/QCxaCcQyHV0IdKT0+nwYMH07Rp0ygtLU0MwL/r3r07de3alTp27Ehz5syhKVOm0MSJE6lOnTrUo0eP0C8Ei5AJoDtHyMgKGkBESwLU3BwiWvMAuci9kxtfozPbZhHlXSAWjDgKEhBvLGJL0DUN+1G5Zs8CjwIC6bOLUX2IaAUk5YbwFtGGgJ4xYwa1atWqwOBjxoyBiJbDHZI1unOEhKvwyRDRcgB1L5fQ3T85+rC2A4ErF07Tof/cQ8WKlaKytXtQQkpDO7gdFR9zM7fRqT3z6PLlLKr6+88prkSZqPjhlIumz46n+o/mUExMMadMyZbzMIvo1NRUkWUeOXKkR0CvWbOmQCa6VKlStHTpUvHv5ZdfFufycfLkSWHLv+fD+BvbT58+Xfzuww8/pGbNmtH8+fNF1jsnJ4eGDBlCs2bNEn9nzcMZ78TERFuyVOk0unMooAkRLQcRmV45frB2PoEDS26nhMSaVD7tMedPVtEMT6S/Tbk5+6h6568VjejOYdLfi6f6j+RQTCxEdDRXgCGiX3zxReJMc69evQqUa3iL6AULFggRbBbczZs3F2K4TZs2wtYszDMyMqh169a0evVqMs6rWrWqEN98PT74Z0OEmwV8NLlE+9rozqEgAhDRchAhouX4wdrZBDJ//Tud3f4uVW85zdkTtWB2B9YNpuQGfSil/v9ZMLo7hoSI1iPORvnGxo0bhUNz584tUkQbopf/O2/ePNq9e7cnG23MiAXxoEGDaPTo0cQimsUyn1uuXDm/NkZWmkW8dxmJHqQi6wW6cyjgDREtB1H3cgnd/ZOjD2vdCRxY1IGuqXI3la7UXndXtfPv3NHldObwl1T9ru+0880uDkFE6xEpQ0QPGzaMWrRoIR4oNNdDe2eizQ8WmkU0n8cZZ+MwyjZYRBsPJnKZhtnGW8CzLWesIaKJ0J1Dwf0BEa0AosZDIFOucXBc4Nqv/yxN13b4guLiS7tgtmqneOXSOdr13R+o/l/OqR3YRaOlv1ec6j9ynmJi4100a/2m6v1gIYthc+bYW0SbM9FGOcaAAQMK1FJ7Z6J9ieinn366QAkIMtGF1wa6c0jeLxDRkgA1N4eI1jxADndv+7sx1OCu9Q6fpXXT276oBTXok2/dBRw+MkS0HgH21eKOxfGhQ4fEQ34bNmwo8GAhi2rOJvNhPITYoEGDAiKa/z5hwgRRO+0vE+0too1MNjLR/39doDuH5D0CES0HUPdyCd39k6MPa90JQETLRQgiWo4fRLQcP1XWvkS08ZBfrVq1qFu3bvTRRx95+kSbu3OY66dZOPfs2VO4xd02WHxzfTMf/so5zCUg3M2DD/ShvhpZdOdQsMIhouUgItMrxw/WziYAES0XX4hoOX4Q0XL8YO1sAujOoSC+ENFyECGi5fjB2tkEIKLl4gsRLccv/b0SVP+RLNREy2GEtUMJoDuHgsBCRMtB1L1cQnf/5OjDWncCENFyEYKIluN3VUSfo5jY4nIDwRoEHEgA3TkUBBUiWgFEjYdAplzj4LjANYhouSBDRMvxg4iW4wdr5xNAdw7JGENESwLU3BwiWvMAOdw9iGi5AENEy/GDiJbjB2vnE0B3DskYQ0TLAdS9XEJ3/+Tow1p3AhDRchGCiJbjl/73EqLPNso55DjC2pkE0J1DQVwhouUgItMrxw/WziYAES0XX4hoOX7pf0+g+n/OpJi4EnIDwRoEHEgA3TkUBBUiWg4iRLQcP1g7mwBEtFx8IaLl+EFEy/GDtbMJoDuHgvhCRMtB1L1cQnf/5OjDOtoEPv/fP+iGmm2oeplrfboiK6LTd+2jwS9MoGmvDKO0a2taNl2+zuiJs2j6uGeoXJmUkK+zZt1GmvPxIpry0lBKTFCX9YSIDjkUBQwgouX4wdrZBNCdQ0F8IaIVQNR4CGTKNQ6OA1yb/PUwunAph2qWq09t6t9VSExDRMsFGSJajh9EtBw/WDufALpzSMYYIloSoObmENGaB8jm7v1yeB0t2jxPCOnixUpQ9TJ1qU29u6h62auZaStFdE7uBRoyahLNmrNQXGv1Z7OpVctm4mfODLe+t7f4+eVh/enQ0eMiS8yH2Wbu9DF0Z4ffUY+BL9DS5d/THe1vpXkzXqHtO/d67M1je1+T7Xvc31lcjzPRyaVL0YS3/uUZJ5ystnlJQETL3SDpf0+k+n8+g5poOYywdjABdOeQDC5EtBxA3csldPdPjn5h6wOndhHxW2s/RxF/oiINg3S04Ph+rla0E0VcKaaoqQXpofm0wo6I34To30frZ9LZnFOegQ0x/btr76DcTxtQg7vWh+HbVZOiyjnGTHnXI443bN5OA597nebPepVSy14jRPHIIX2oeZMGQjTzwSJ64eJltHvfIfG3k6czacRrM2jsswMp49QZTzkH/2wuIZm3cAmtWvtzkfaG6GYhb1yzaqUK4joyB4vomn9YLTOEq233L+pI9f/CDxYmuJoDJg8CvgigO4eCdQERLQcRmV45fqqtZ3w3kpKKlyJ/cjM/4AUDn1HUEAWt/YwV9iXyKWzTQk77Hik/jAucyj5GFy7lFrhCsdh4SqvUjBpt6GuJiDYywr0euEtkn43/b3PzDVSrepUC9cnmemWziDY7XFRNdDD2fA6Les5ic/aZhbch1gMuuSJOYBGdWLGVzBCuto0vWZ0qt/s7RLSrVwEm748AunMoWBsQ0XIQIaLl+Km2fnXxIBp25xRiEYfDegLZF7NoytfDKC8/T1ysRLEESkksR+3S/kANKt1gWTkHZ5GNbLNRwsEitk7NqsIPI3PMD/l5P/TH5704YaY4zygB8RbR5nP4vH697vc8NOjL3vsaKkV0gz5hvLOxPvS4AgiAgM0JoDuHggBCRMtB1L1cQnf/5OgXtoaIVk206PG+3vpv+nHPdxQfF19APBtWVtVEh5uJNnfOYCE+6PnXafTT/YS7RncOLs0wZ5X9dd4w23MJiLk7B0R0ZNchrgYCIBA6AXTnCJ1ZIQuIaAUQNR7CbZlyiOjILUbOQk/99llKSShLHRveJzLP3odVIpqvE05N9MS354hsNT8M6K8m2iyikxITCtRU+7NnG4joyK09XAkEQEANAXTnkOQIES0JUHNziGjNA2Rz93Yc30z1KjTxOwsVIrp7v+do49ZfPddo1qi+eICwRtVKAbtz8LkDHnmA+MFDfrAwOyfX04mDBzTKOYzyEP7d7Ekjacwb74quH2z/0rB+9OGnS0UPaT6MTh5me5Rz2Hwhw30QcCkBdOeQDDxEtBxA3csldPdPjn5ha2SiVROVG09WRMtd/ao1Z6z5kO2UocKXUMdAi7tQieF8EACBYAmgO0ewpIo4DyJaDqLbMr1ytKy3hoi2nnEoV4iGiOaHBM3Za/NDgaH4rsO5ENE6RAE+gIAzCaA7h4K4QkTLQYSIluOn2vqqiH6DisUWUz00xguDQDREdBhuamsCEa1taOAYCNieALpzKAghRLQcRN3LJXT3T45+YetXFw+kYXdOhYhWDTbM8SCiwwT3mxlEtBw/WIMACPgngO4cClYHRLQCiBoP4bZMOUS0XosRIlouHhDRcvxgDQIgUDQBdOeQXCEQ0ZIANTeHiNY8QA53DyJaLsAQ0XL8YA0CIBBARI8ePTp/1KhR4BQmAYjoMMH9ZqZ7uYTu/snRL2yNTLRqonLjQURL8lvUgvCNhXIMYQ0CIOCbALpzKFgZENFyEN2W6ZWjZb01i+jhd06lODxYaD3sIK4AER0EpCJOQSZajh+sQQAE/BNAdw4FqwMiWg4iRLQcP9XW4xYPpGcgolVjDXs8iOiw0QlDiGg5frAGARAIIKJRziG3RCCi5fjpXi6hu39y9AtbQ0SrJio33vZ3Y6nBXT8SET++giM0Avm0fdFN1KBPXmhmOBsEQAAEgiCA7hxBQAp0CkR0IEL2/rvbMuUQ0Xqt110fVKfqLd+k4iWr6+WYDby5eP4AHVj3OF370AEbeAsXQQAE7EgA3TkkowYRLQlQc3OIaM0D5HD3jq58lIrHlqay1/7Z4TNVP71Tu/5FF/POUaW276kfHCOCAAiAAH9GiHIOuXUAES3HT/dyCd39k6Nf2BqZaNVE5cbLzfiJDizuSLVaz6P4xMpyg7nI+lLOEdq7ugdV77KMElJvdNHMMVUQAIFIEUB3DgWkIaLlILot0ytHy3priGjrGYd6hZMbX6NzO+ZRlWajqHip2qGau+78i1l76PDGl6h0vR5Urtmzrps/JgwCIBAZAujOoYAzRLQcRIhoOX6qrSGiVRNVM96pLW/Q8R+eojK1/0QlU2+mYiXKqRnYQaNcvnCSzmespdN7PqQKt0ymso2fdNDsMBUQAAHdCAgRjXIOubBARMvx071cQnf/5OgXtoaIVk1U3XiXzh+gs7/+k7KPrKAruRnqBnbISHEJqZRUuR0l1/8LxeNBTIdEFdMAAX0JoDuHgthARCuAqPEQbsuUQ0RrvBg1cy03Yz0dXv5nqtJ+DuqONYsN3AEBEIgMAXTnkOQMES0JUHNziGjNAwT3okbgyKredHbnPEqu25Mqt/JXacwAACAASURBVHk3an7gwiAAAiAQLQIo55AkDxEtB1D3cgnd/ZOjX9gamWjVRJ053sWzO2nPx40oP+8SxcQWo9oPbKPiyXWdOVnMCgRAAAR8EEB3DgXLAiJaDqLbMr1ytKy3hoi2nrETrnA1C/0+5V/JpZi4BEqu2wPZaCcEFnMAARAImgC6cwSNyv+JENFyECGi5fiptoaIVk3UeeOZs9DG7GJi46n2A1uRjXZeuDEjEAABPwTQnUPB0oCIloOoe7mE7v7J0S9sDRGtmqjzxjNnoWOLJ1PexbO/ZaMfpsptZjtvwpgRCIAACPgggO4cCpYFRLQCiBoP4bZMOUS0xotRA9c4C7373w0oNj6JElJbUvbhZZRUpSPlnlhH+ZezqfaD25GN1iBOcAEEQCAyBNCdQ5IzRLQkQM3NIaI1DxDciyiBnOM/0OHlPahy678J8bz93Rhq0CdfiOkjq/5KVTrMo8QKt0TUJ1wMBEAABKJFAN05JMlDRMsB1L1cQnf/5OgXtkYmWjVRZ49niGhnzxKzAwEQAIHCBNCdQ8GqgIiWg+i2TK8cLeutIaKtZ+ykK0BEOymamAsIgEAoBNCdIxRafs6FiJaDCBEtx0+1NUS0aqLOHg8i2tnxxexAAAT8E0B3DgWrAyJaDqLu5RK6+ydHv7D1uMUD6Jk736S42DjVQ2M8BxKAiHZgUDElEACBoAigO0dQmIo+CSJaAUSNh3BbphwiWuPFqKFrENEaBgUugQAIRIwAunNIooaIlgSouTlEtOYBgntRJQARHVX8uDgIgECUCaA7h2QAIKLlAOpeLqG7f3L0C1sjE62aqLPHg4h2dnwxOxAAAf8E0J1DweqAiJaD6LZMrxwt660hoq1n7KQrQEQ7KZqYCwiAQCgE0J0jFFp+zoWIloMIES3HT7U1RLRqos4eDyLa2fHF7EAABPwTQHcOBasDIloOou7lErr7J0e/sDVEtGqizh4PItrZ8cXsQAAE/BMQ5Rzt27fPX758OY0ePZpGjRolzuY/8P/zgd8XzaFv3740a9YscJNYPzrfpB06dCA33R/5zQ7SKw++RyNfeBH7Afa/gK8D2/5G4mu/3fK6MfzVv9Przz7imvni9R86CHqwaF0ck5+ff3UHxBEWAWSiw8IGI00JIBOtaWA0dcttmejHpyynN4e01zQacAsEQCDSBCCiJYlDREsChLlWBCCitQqH9s5ARGsfIjgIAiBgIQGIaEm4ENGSAGGuFQGIaK3Cob0zbhTR04a0J/6CBRwgAAIgABEtuQYgoiUBwlwrAmMXD6Dn7nyTYvG131rFRVdn3CaiB09ZTlOfbE8xUNG6Lkn4BQIRJQARLYkbIloSIMy1IiBEdOc3KTYmTiu/4IyeBFwnot9YTlOfgIjWczXCKxCIPAGIaEnmENGSAGGuFYGxiwbQc10gorUKisbOQERrHBy4BgIgYDkBiGhJxBDRkgBhrhUBiGitwqG9MxDR2ocIDoIACFhIACJaEi5EtCRAmIMACNiWgPtE9Aqa+kRb4m8qwwECIAACENGSawAiWhIgzEEABGxLACLatqGD4yAAAgoIQERLQoSIlgQI84gSWLNmDbVu3Vpcs1mzZjR//nxKS0uj9PR06t69O23cuFH8bfXq1dSqVSu/v4+o07iYtgTcJqKfeGMFTXmiLcUiE63tmoRjIBBJAhDRkrQhoiUBwjxiBE6ePEkjRoygsWPHUrly5YgF9Zw5c2jcuHH02muvUe/evT2Cmr/ud+LEiTR16tRCv58+fbqwxwECENFYAyAAAm4mABEtGX2IaEmAMI8aAc4+z549m1566SVKTEz0+OEtto0/+Pt91CaAC0edAER01EMAB0AABKJIACJaEj5EtCRAmEeFAAvowYMH07Rp00T22SyUe/ToQSNHjhTlHIF+HxXncVFtCLhORE9dQVMeb0uxsXiwUJtFCEdAIIoEIKIl4UNESwKEecQJcEZ50KBBxCUbZgGdk5NDQ4YMoV69ehUQ0P5+H3HHcUHtCEBEaxcSOAQCIBBBAhDRkrAhoiUBwjziBFDGEXHkjr0gRLRjQ4uJgQAIBEEAIjoISEWdAhEtCRDmIAACtiUAEW3b0MFxEAABBQQgoiUhQkRLAoR5xAkgEx1x5I69oNtE9JNTV9Ckx9tSHGqiHbumMTEQCIUARHQotHycCxEtCRDmIAACtiUAEW3b0MFxEAABBQQgoiUhQkRLAoQ5CICAbQlARNs2dHAcBEBAAQGIaEmIENGSAGEOAiBgWwIQ0bYNHRwHARBQQAAiWhIiRLQkQJhrRWDsosfouS4zKDYmViu/4IyeBCCi9YwLvAIBEIgMAYhoSc4Q0ZIAYa4VAYhorcKhvTOuE9HTVtCkgW0pLg5ftqL94oSDIBABAhDRkpAhoiUBwlwrAhDRWoVDe2fcJqKHTFtJEwe2prg4fFKj/eKEgyAQAQIQ0ZKQIaIlAcJcKwIQ0VqFQ3tn3CiiJwxsTcUgorVfm3AQBCJBACJakjJEtCRAmGtFACJaq3Bo7wxEtPYhgoMgAAIWEoCIloQLES0JEOZaEYCI1ioc2jsDEa19iGzj4Jo1a6h169bC32bNmtH8+fMpLS2N+MuhunfvThs3bhR/W716NbVq1crv720zYTjqCAIQ0ZJhhIiWBAhzrQhARGsVDu2dgYjWPkS2cPDkyZM0YsQIGjt2LJUrV45YUM+ZM4fGjRtHr732GvXu3dsjqEePHk0TJ06kqVOnFvr99OnThT0OEIgUAYhoSdIQ0ZIAYa4VAYhorcKhvTMQ0dqHyJYOcvZ59uzZ9NJLL1FiYqJnDt5i2/iDv9/bcvJw2lYEIKIlwwURLQkQ5loRgIjWKhzaO+M2Ef3UtJU0Hg8WWrouWUAPHjyYpk2bJrLPZqHco0cPGjlypCjnCPR7S53E4CDwGwGIaMmlABEtCRDmWhGAiNYqHNo74zYRPe3f/6M9R85SDNpEK12bkx9vK8bjjPKgQYOISzbMAjonJ4eGDBlCvXr1KiCgff3+qTdXKvXNyYPVqpRMj93flOLRbSbsMENEh43uqiFEtCRAmGtFACJaq3Bo74zbRPSly3nax8SODsYXu9p3W0UZB2IU/AoY/tZqQsvG4Hn5OhMiWo4fRLQkP5jrRQAiWq946O6N20S07vGAfyAQCgH+8iCI6FCIFT4XIlqOH0S0JD+Y60UAIlqveOjuDUS07hGyl38qMtH2mnF0vYWIlucPES3JEOUckgBhrhWBVxY9Rs93mUGxMfhaY60Co6kzENGaBgZugUAQBCCig4AU4BSIaEmGENGSAGGuFQEW0SO6zKAYiGit4qKrMxDRukYGfoFAYAIQ0YEZBToDIjoQoQB/h4iWBAhzrQhARGsVDu2dgYjWPkRwEAT8EoCIll8cENGSDCGiJQHCXCsCENFahUN7ZyCitQ8RHAQBiGgL1wBEtCRciGhJgDDXigBEtFbh0N4ZiGjtQwQHQaBIET1xYGuKQ5/osFcJRHTY6K4aQkRLAoS5VgQgorUKh/bOQERrHyI4CAJ+CTw5bQVNGtiW4uLw7UHhLpOY9u3b5y9fvlzY87cEjRo1SvzM31nP/4/fF82hb9++VKVKFXCTXD/hLmCr7dx2H4z5oh+N+uPfKD8v3zX7gbHnWb2WnDg+RLQTo+reObltv7+ly//R2iX/cJXOU73f89uP/Pz8fPfeNZIzRyZaEiDMtSLgtkx0TEwMb4BaxcBOzkBE2yla8BUEChJ4cuoKmvR4W4qLdUcm2or9Pmb06NH5qpW5mxYqRLRctPmdP9afHEOV1hDRKmk6fyyIaOfHGDN0LgGIaPnYoiZakiFEtBxAK94ZynlU0NptIv+VRf1pRJe3iePihsNt8VUdU4ho1UQxXjQJuG0/cJuItiK+ENGSdyxEtBxA3UW07v7J0S9s7TYRrZqf28aDiHZbxJ09X7ft924T0VasXpRzSFKFiJYDaMU7QzmPClq7bVOFiFa5epw/FkS082Psphm6bb+HiJZf3XiwUJIhRLQkQM3NdRf5qvG5TUS7Lb6q1wtEtGqiGC+aBNy2HzwxdQVNebwtxbrkwUIr4gsRLXnHQkRLAoS5VgTcJqLdlnlSvdggolUTxXggEDkCbhPRVuz3KOeQXK8Q0XIArXhnKOeRu60hot0d/1BnDxEdKjGcDwL6EICIlo8FHiyUZAgRLQfQineGch4VtHabyHebiHZbfFXeGzwWRLRqohgvmgTcth+4TURbEV+IaMk7FiJaDqDuIlp3/+ToF7Z2m4hWzc9t40FEuy3izp6v2/b7J95YQVOeaEuxLmlpasXqRTmHJFWIaDmAVrwzlPOooLXbNlWIaJWrx/ljQUQ7P8ZumqHb9nuIaPnVjQcLJRlCREsC1Nxcd5GvGp/bRLTb4qt6vUBEqyaK8aJJwG37gdtEtBXxhYiWvGMhoiUBwlwrAm4T0W7LPKlebBDRqoliPBCIHIHBb6ygqU+0dc031Fqx36OcQ3K9QkTLAbTinaGcR+62hoh2d/xDnT1EdKjEcD4I6EMAIlo+FniwUJIhRLQcQCveGcp5VNDabSL/lS/704i73nZNZsJt8VV5b/BYENGqiWK8aBJw234w+I3lNPWJdtjvJRYdRLQEPDaFiJYDqLuI1t0/OfqFrYWIvvttiiGu9MIBAkUTgIjGCnESAbft91dFdHtCc47wVzHKOcJnJywhouUA6v7O322bKkS03Hp2mzVEtNsi7uz5um2/h4iWX894sFCSIUS0JEDNzXUX+arxuU1Euy2+qtcLRLRqohgvmgTcth+4TURbEV+IaMk7FiJaEiDMtSLgNhHttsyT6sUGEa2aKMYDgcgRGDxlOU190j3lHFbs9yjnkFyvENFyAK14ZyjnkbutIaLdHf9QZw8RHSoxnA8C+hB4fMpymjakvWuegLFEROfn5+frE1L7eQIRLRczKxa1nEcFrd0m8t0mot0WX5X3Bo8FEa2aKMaLJgG37Qcsot8c0j6ayCN6bSvii+4ckiGEiJYDqLuI1t0/OfqFrd0molXzc9t4ENFui7iz5+v0/f67DQfpizW76Z5Wdah982pkiOjlPx+kz1fvprturU2dWlR3dpAVzw7lHJJAIaLlAFrxzlDOo4LWTt9UvVlBRKtcPc4fCyLa+TF20wydvt9fuHSFnnt7DXH9RvFicXQ+9xKVTIini5fzKC8vj17t34oSSxRzU8il54oHCyURQkRLAtTcXHeRrxqf20S02+Krer1ARKsmivGiScAN+8FXP+ylb9YfIBbUxlEsLpba31CN7m1TJ5r4Lb+2FfGFiJYMG0S0JECYa0VgzJf96QUXfdmK0zNPVi8uiGirCWN8EFBLQGSjZ66hS5fzCojoV/v/jhKKOzsLbcV+j3IOyfUJES0H0Ip3hnIeuduaRfTIu98m8XmfCw4rNlUXYPNMESLaTdHGXJ1C4IvVu2nZhoN0+UoecRa6Q/NqdE9rZ2ehOXZW7Pd4sFDyroCIlgNoxaKW86igtdtEvttEtNviq/Le4LEgolUTxXjRJOCW/eDCxSv07Mw1HhHNtdAJxeOiiT4i17YivhDRkqGDiJYDqLuI1t0/OfqFrcd82Y9G3j1L9bAYz6EEIKIdGliXTstN+z1341j20wHqeGN1V2ShrVrSKOeQJAsRLQfQineGch4VtHbTpsozh4hWuXqcPxZEtPNj7KYZumm/z714heYu3U697mhAJVyQhbZqHePBQkmyENGSADU3113kq8bnNhHttviqXi8Q0aqJYrxoErDrfnDm3AU6eTaXTp3NpTNZFyjz/EU6l32RsnIuUXbuZWLBfPHSFbp0+Yoo4biSl0/5/O+3p19iYmMoLjaW4ovFUvFisUJUc6s7bn9XKimekpOKU0qpElSG/yUnUGpKgi1b4VkRX4hoyTsWIloSIMy1IuA2Ee2mzJMVCw0i2gqqGBMEfBPIvXCZ9h07RwdPZNHB41l05GQ2nTidTcWLx9E1pRKoVMkSVDKxBCUlFKekhHhKLBFPJYoXo+L8r1iceIgwjv/FxoiH7IwjLy+f+B8L7EtXrtClS1fowkUW35cpJ5eF+EXxLyv7Ap07f4HOnMuh+Pg4qlAmiaqUS6Kq5UuJf9UrlBLX0PWwYr9HOYdktCGi5QBa8c5QziN3W0NEuzv+oc4eIjpUYjgfBIInkHPhMv164DT9uv8M7TyUScdPZ1Pl1NKUWqYUlbumJJVLSaIyyUlUPD7yDwWez7lIp89m08nMbDqVeZ4yTmfR0ZNZVKNiMtWtmkLXVkuh+tXLUIko+OaPsCUiOj8/nzP6OMIkABEdJrjfzKxY1HIeFbR2m8h3m4h2W3xV3hs8FkS0aqIYL5oEdNgPuCRj064M2rTrJO06dIZqVS5DVSqkiH+VypWOJp6A1+Zs9pGMs3T4xFk6eiKT9h4+TfVrlKXGdcpS02tTqWxyQsAxrDzBiviiO4dkxCCi5QDqLqJ190+OfmFrt4lo1fzcNh5EtNsi7uz5Rmu/5y8+Wb/9GK3ffpz2Hz9HdaunUq0qZcW/2Fj79uy/kpcnhPS+wydp54GTVL1CaWrZoAK1bFhR67KPUFY5yjlCoeXjXIhoOYBWvDOU86igdbQ2VZVzCGUsiOhQaOFciGisAScRiPR+f+JMDq3ZdJj+u+UIVa2QQvVqVqB6NVKdhLTAXHYeyKBf9x4X2epWTapQm6ZV6JrSJWw9XzxYKBk+iGhJgJqb6y7yVeNzm4h2W3xVrxeIaNVEMV40CURqP+CSjW/WH6D/bj5M16dVpSb1K1NyyeiWOkSSOz+YuOnXw7RpxxHq2Lw63d6yBiUlWP+V41bEFyJacuVAREsChLlWBNwmoiOdedIq2AqcgYhWABFDuIrAtz8doEX/3UPN6lehFtfViMpDgboA54cT1/2yn3YfPEn3tKpNtzaubKlrVuz3KOeQDBlEtBxAK94ZynnkbmuIaHfHP9TZQ0SHSgznu5UAZ58//PZXunCJqNUNtUVXDRxXCXB5x5qfd4t2eQ/dVt+yNxaWiGh055BbxhDRcvysWNRyHhW0dpvId5uIdlt8Vd4bPBZEtGqiGC+aBKzaD/YfO0ezv/yF0mpXpJbX1YjmFLW+9sqfdtGpzCzqc/d1VMaCWmkr4mur7hybN2+mNWvW0I4dOygrK0vrxRAN50qVKkX16tWjVq1aUZMmTaLhQsjX1F1EW+nfzuOb6ad9q+jAqZ2Uc+l8yOycbpAYX5Kql61LN9ZsQ3Ur2GM9WxmTrAOLKXP73yj76Cq6cuGklZey5dhxJcpRUqU2lNLgr1SqehdbzgFOR5eAFft9RmYOTf33RrqxUXW67tpK0Z2gDa6+bst+Onj0FD3Z7XrLMtIqMdimnGPu3Lm0c+dOateuHTVs2JCSk5NVcnDEWGfPnqVt27bRihUrqG7dutSzZ0/t52XFO0OVk7ZiU2X/vtw0h/ZkpNO1FZtRpZSalBBfUqXbjhgr99J5Opq5j3Yd20i1U9Po7qa9HDGvcCZxdHVfyjm8nMrW+hOVrNCKipVw7hP84fBhm8sXMuj88TV0au+HlFilPVVq/U64Q8HOpQSs2O9nLNxEqWWTqXnD6i6lGvq0V23YTcVirtCf72wQunGELWzxYCEL6PPnz1OvXu59EQ11XcyZM4dKlixpCyEd6twieb4VIp8F9KnsDGpR+/eRnIqtr7V+z3+obFKqciFtRXxVg2YBnXfuIFW5fozqoR073uH/jaTY0tUgpB0bYWsmpno/2PDrcfpm/SG6r1NTaxx28KhzF62nh2+rT2k1yiibper4smPai2gu4ViwYAENHz5cGUi3DDR+/Hjq2rWrbUo73BAXLuFYsmU+dbruITdMV+kcv/3lA+rcuLvS0g4rMk8qJ80lHCe+f5Jqt/lA5bCuGGvPqoeo/K1voLTDFdHWc5IzP9tM1SqlUlqtCno6qLFXG389TOezsugvnRsq89KK/V77co6ZM2dSWloa3XzzzcpAumWgtWvXUnp6OvXv31/bKVvxzlDbyRLR/HVvUemk8lQrtZHObmrp296MrXQu+wR1bzlAmX9WbKrKnCOiQ1/fR6VSmlBK9XtVDuuKsTIPfEZZmZup6u2fuGK+mKR+BJ55ew093KU5JSUU1885zT06m5VLnyzbRK/89VZlnlqx32v/YOHQoUNp2LBhqIEOYxlxjfSECRNo0qRJYVhHxsSKRa3Sc9Uif+LSp6jjdX9CDXQYQeIa6WW/fEhP3zE5DGvfJqrjq8yx3wbaMSeVareZhxroMMByjfSeVT2oXq+MMKxh4kYCqveDx6csp8EPt3EjSiVz3rR9P3VtV1vJWDyI6vjymNqLaG4hN2XKFGUQ3TbQkCFDaNasWdpOW3cRrdo/biHXteVgbeOhu2ML1k2jkXfru55V8xMt5O5ar3pY14y3fVELatAn3zXzxUTlCKje71lE97n/ZmSiwwhLdu5FenfhWnpzSPswrCNnon05B0S03GLQXURb8c5QjlhBa9WbKkS0XHQgouX4uc0aItptEZebr+r9nkX0Hb9LQ010GGFJ33uclv43XX8RTURaf98KRHQYq89koruIlpud9daqRT5EtFzMVIto1fGVm11ha2Si5YhCRMvxc5u16v2ARXSV8sn0wO3N3IZSer4ff72RDp84q1REq44vT1L77hwQ0XJrESJajp9qa4hoOaKqRbTqzJPc7CCilfNDOYdqpBgvBAIsomtWLkNVK6ZQi0boEx0suvVbD9ChY5m078hppSLaiv0e5RzBRtWm5+kuoq14Z6hzqCCi5aIDES3Hz23WyES7LeJ6zZdF9F/uaUkLv91ENzWugW8sDCI8v+w6Sj9u2U/3d2pK//x8nf4iWutaDiJCJjqIVVfEKbqLaCveGcoRK2itWuRDRMtFR7WIVh1fudkhE62cHzLRqpE6ejzV+4HRneP4qSxasnobNaxTUYhpHL4JsHjetvsYdW7dkCqULUXT3l+lVESrji/PAt05HL6aIaLlAqxa5ENEy8VDtYiW88Z6a9REyzFGJlqOn9usVe/35hZ3585foO/W7aR8yqe2zetQmeQkt+H1O9/TZ7Np5YbdFEMx1KFlXSpdsoQ4V7WItgI4yjmsoKrRmLqLaCveGarEr3pThYiWiw5EtBw/t1lDRLst4nLzVb3f++oTvWHbQfph0z5qVr8KtWxcg4rHx8k5bWPri5eu0Lot+4m/nfCWpjWpecNqBWZjCxGN7hw2XoFBuK67iA5iClE9RbXIh4iWC6dqEa06vnKzK2yNTLQcUYhoOX5us1a9H/j7shXOSrOY3rzzCF2fVpWa1q9MySUTXIP77Plc2vTrEfpf+iFqUreyEM9G9tkMQbWIVh1f9hXdORy+bCGi9QowRLRcPFSLaNWZJ7nZQUQr54eaaNVIMV4IBAJ9Y+GZczm0ZedR2rrrKFWpkCL6SderkRrCFex16o79GcT9nw8fz6RG11aixnUr0TWlE/1OQrWItmK/d2Q5x759+8RXhR89etQTnEqVKomvwK5Zs6byVcfXmzFjBo0YMYJSUlKUjy8zoO4i2op3hjK8rLYNR0Tv2bWXhvYdSum/pHvcS7sujSa9M4lqX1tLuct8vbcmzKARr46ga8pco3x8mQEhooOjl75rH3Xv9xxt3PprAYM72t9K82a8QuXKyO1T/sZ/eVh/GjmkT3BO/nbWmnUbacyUd5X45X1hZKJDCgVOVkwgkIg2Lnf5Sp4Qlzv2ZdCxU+fo2uqpVKdqWapVpSzFxnKu055HXl4+7T18inYfOkW7DmRQxbKlqV7NVPFmoVhcbMBJ2UJEO7E7B4vacePG0fPPP+8Rzf/73//E76wQ0hDRAe8FvydY8c4wfG8KW6oW+eGK6HEjxtHzY5/3iOaff/yZxjz3iiVC2k0iWnV8Va49Hivccg4WuYNfmEDTXhlGadeqTxz4Gv/k6UzqMfAFIaJbtQz+yyUgolWvGowXLgHV+0GwItrsL5d67DqYQXsOnaJDxzOpRqUyVK1iishUVypXOtypRczu6MlzItN88Fgm7T96mqpWSKHaVcvStdVSfZZsFOWYahGtOr7suyO7c/gS0TzZWbNmiXjdfPPN9Pnnn9Pw4cMpISGB+PwFCxZQ7969aerUqVSxYkWaN2+eOLdHjx6izR4fLMQHDx7sifm0adOodu3a9Mwzz9DWrVupUaNGNGjQIHrzzTfFOSwQX3/9ddqzZ08hu+uvv16cY86a33bbbR6fzNcy/z7UO0H3TLTuIlq1f6pENK+DmZNnXl3PrW+mzz/+gp55+RlKSChBLIIXzltAfQb/ld4Y9wZVrFSB3hw/XZz7+PBB1P+p/uJnFuI97+nlWVJzP59DtevVpuEDnqE1362hVh1a0aBhAz22zGL8W6/Tnh17CtndcNMNYhxz1rzbn7t5fDJfy/z7UNez6kx0qNeP9PlWiuh5C5dQz0EjqVmj+jTgkQdow+btNOWloeK/re/tLabqL3PtT6RzRrlOzarU4/7OlJN7gYaMmkSz5iwUY63+bLZHXJsz2Zy9ZiFtZMj5Z+P6/XrdL3xKTLj6tH6oBzLRoRJz9/mq9/twRLQ5AhcvXaYDR88IQcrf3nfqbDZVLFeaKpQpRallSlK5lCTR5SMaDyfyQ4HcVeNkZjZlnD5Px09n0bGT56hscpL4lkYW/tUqXUMl4ouFvahUi+iwHSnC0LHlHN6ZaGbAwpTFM4viSZMm0cCBA0WmetGiRQJRp06daPz48eJnFtjbt2/3ZK/5d+Yx2eann34S5x07dsxTznHmzBlRSsJZcBbK3oLebHfhwgUaO3asxw8W+dWqVaPGjRt7rsWCnn3i/xpiPpSFoLuItuKdYSh8Ap2relNVKaJZmLJ47j+kP018aQINGDZQZKq/XPClmNZtd91Or7/4uviZBfa2TVs92Wuxnk3Zbbb5ae0Gcd6RQ0c85RynT50RpSQjX32B8MsOdgAAIABJREFUWCizSPZnl5uTQ2OfG+vxg0V+tZrV6LrrG3tsKletLHxiYW+I+UAxMP8dIjo4WoEy0ea/16haSYhdPkY+2YeefvkNGv10P5HBZqHNB4ti8xFMJpoFtRhzSB8hkgc+9zrNn/UqpZa9RmSsez3QRYzL5xkiOuPUGU8G3fCraqUKIZeIGL5CRAe3XnDWVQKq93tZEe0dFxbVx05m0YnTWZRx5jydysym02dzhIhOLpVAySVLUKnEEpSUWJySEuIpsUQ8lShejIrzv2JxooQijv/Fxoi5Gkd+fj5dycunK1fyiEtLLl6+QhcvXqYLFy9TzoVLlJ17ibJzLlJWzgU6e/4Cnc3KJRbRZZITqWxKEqVeU5LKlylFFcuVouISotl7vrYQ0U7szuEvE22IaBa+//znP0VGukGDBvTWW29R165dhVBlwXrjjTfSXXfdRZmZmQVErjnA5rG8RbQvAW/Ymu1YpJsz4sY5ZqHNmXKzDf9/KIfuIjqUuUTjXNUi3woRzcL3H2/9XWSkGzZtRDPGT6f7e3QlQ7DeeHNzurvr3XTm9JkCItfM0xDkvkS0dymJPzsW6eaMuHGeWaBzptx8Lf7/UA7VIlp1fEOZSzDnymSifdVEGzXLLI5Xrf3Zk+VlETvn40WFRLQ/H/3VRM+dPkYIY+/SDiMr3euBu4SIHj1xFk0f94yozeaxjP//6rv/+vQr3Gw0RHQwqwznGARU7weqRbS/SGVlXxW257IvUFb2RTqfc5FyLvC/q0KYxfelS1fo0pU8IZS5VjkvP98zXGxMjKi9ZoEdz//i44QYZgGeWIL/FaeSicWpVFJxKp1UQgj2Ukmh7d3hrDLVIlp1fMUbLzeJaLM4ZQG7du1auvPOO0Upx4ABA0SMWUTfc889IovsLaI5U2yUefC5RpmFt4j2fsjQn923337ryWabxTH7yWUg5oNLRfh3oT64CBEdzq1rnY1KEW0Wpyxg165eS3fce6co5Rg4fJCYBGd973ngDyKL7C2iOVNslHnwuUaZhXcm2vshQ3923yz62pPNNotj9vOZgc8WgMqlIlwaEuqDi6pFtOrMk+qVIyOii6qJZhG9e98hT4bXENEsVvcfOup5KNFfOYV3Jtq7rtkQ0UuXf18ACYvsWtWrFHiQ0FtEc4mJ+ZB5GBIiWvWKxHihEIiUiA7FJ/O5LKN1fmxRtYi2Yr93VTmHURPNZREskLn+mWuay5YtKzLPubm5fkX06dOnaebMmR4hW1Qm2iyi+Tx/dkVlog8ePBhW+Yb3zaS7iLbinWG4G0ok7FSKaKMmmssiWCBPfXWaKOcom1pWZJ5zcy/4FdFnTp6mt6fM9AjZojLRZhHN5/mzKyoTfXDfwbDKN7xjAhEd3CoNVM7hLxPtnfH1FtvG1X2Nz2UZh44eF9nt7JxcGvT8656yELPXZtHsKxNtFvfBzdb/WRDRsgRhL0NAdxEtM7dI2NpCRLu5OweLas4GGx07ghXRJUqUKFA7XVQm2iyifdmZSz8Mkc/Zce/f8zWMByFDWby6i2gr3hmGwifQuapFvioR7as7B4vq/yz62tOxI1gRnZCYWKB2uqhMtFlE+7Izl34YIp+z496/P3b0uOehw0AxMP9dtYhWHd9Q5hLMuVZloo1yjBmvPkPNmzTw1EQ/9pcH6bU3/+4ptVBVE+3rem1uvqHImmiuyTYL83AeLoSIDmaV4RyDgOr9ACJabm2pFtGq48uzc2x3jmD6RHvXGhcloo166W+++Ya45/Rjjz1GS5YsEb2h+eAOHXxwd45//etfnp7Rxpi+7Lg0w18XDvPvwy3lYH8gouVuYtUiP1wRHUyfaO9a46JEtFEv/dG/PiLuOc1dOJZ8ukT0huaDO3SI9TxsIM15Z46nZ7Qxpi87Ls3w14XD/PtwSznYH9UiWm51WG8tI6J91URzJw5+uI8FqrkLBtdKG1nkhYuXia4dfARbzmGQYNE95+PFotNGUmJCge4cRr00n2uuqZ48+ilK37WXxj47UNRIm/2SKeXg60BEW79GnXQF1fs9RLTc6lAtouW88W3tyHKOYEEZ3TC4lMOph+4i2op3hipjqXpTDUdEBzsfoxsGl3I49YCItiay5procDK+1nglPypEtDxDN42ger+HiJZbPbYQ0U58sDBQ2IzssMi4/dYrOpCNXf+uu4jWnatqkW+FiDayw8zS6BWtO9dw/VMtolXHN9x5+bMLNxMdqh8Q0aESw/lOJKB6P4CIllslqkW06vjy7BzZnUMubM6yhojWK55WiGi9ZmitN6pFtOrMk+rZR0pEq/Zbl/GQidYlEu70AyJaLu6qRbQV+72ryznkwmsPa91FtBXvDHWODES0XHQgouX4uc0aItptEddrvhDRcvGwhYh2YncOubA5y1p3EW3FO0OVEVQt8iGi5aKjWkSrjq/c7ApbIxMtRxQiWo6f26xV7wcQ0XIrSLWIVh1fUc4BES0XZN2tIaLlIqRa5ENEy8VDtYiW88Z6a4hoOcYQ0XL83Gater+HiJZbQapFtJw3vq1RzmEFVY3G1F1EW/HOUCV+1ZsqRLRcdCCi5fi5zRoi2m0Rl5uv6v0+WiL6zOmTNHRAL1r13X8KAPnw85XU/KbfUW5uDo17cSj98YGe4v/52PDjf+lP97Ql4xzjdzOmvEKT3ppD15QpJwc3DGtbiGg3ducII5a2NdFdROsOVrXIh4iWi7hqEa06vnKzK2yNTLQcUYhoOX5us1a9H0RbRA8c8oJHJO/ZlU5P9H2IRr86XfxuxuRXqHrNOnRP14dFmD9f8D4t+8+XVC+tEQ186gXP7w7s2+35/0ivB9UiWnV8mQe6c0R6VUT4ehDREQYe4HIQ0XLxUC2iVWee5GYHEa2c36IW1KBPvuphMR4IBEVAJxFtCOX1a1fT8y9Poq2bfqZPP54rfuZj2viXhLhe9Ol8GvXqNJF5ZqF9a+uOHiEe1KQVnqRaRFux36OcQ2HAdRxKdxFtxTtDHeNg+AQRLRcdiGg5fm6zRibabRHXa766iWjORk+b8LIQyXxMfnUkPfXcGM/PA4Y8T//623R6sMf/UZmyqfTSc4Np8LAXqfa1aVEBawsRrfuDhUOHDiX+Cu/k5OSoBNHOFz179ixNmDCBJk26+k5Tx8OKd4Yq56la5E9c+hR1vO5PlBBfUqWbrhgr99J5WvbLh/T0HZOVzVd1fJU59ttAO+akUu0286hYiVTVQzt+vMsXMmjPqh5Ur1eG4+eKCaohoHo/WLBiDzVtUEONcyGMYtREm8s52NwsohMSkzx10fy371cvE2UbXNbBR5Prb6R/z/s7DR4+ihISEkO4urpTN23fT13b1VY2oOr4smPad+eYOXMmpaWl0c0336wMpFsGWrt2LaWnp1P//v21nbLuIlq1f/PXvUWlk8pTrdRG2sZEV8f2Zmylc9knqHvLAbq6qNyvQ1/fR6VSmlBK9XuVj+30ATMPfEZZmZup6u2fOH2qmJ8iAqr3+2feXkMPd2lOSQnFFXkY3DD+RDQ/PGh+UNAQzDxqteq1RNkGn8OCmss4DGEd3FXVnpWde5HeX7yBXn+sldqBFY+mfTnH5s2bacGCBeLruXGERmD8+PHUtWtXatKkSWiGETzbineGKt1XvanuPL6ZlmyZT52ue0ilm64Y69tfPqDOjbtT3Qr6rmfVgcg6sJhOfP8k1W7zgeqhHT/enlUPUflb36BS1bs4fq6YoBoCqvf7mZ9tpmqVUimtVgU1DgY5ij8RzaLZqInm7DJnphd/9m86n5UlSji4bINt5/39bUotX5HqpV0XtXro9L3H6eDRDOp/r977vfYPFvKamTt3Lp0/f5569eoV5BLCaXPmzKGSJUtSz549AUOCgBUi/8tNc+hUdga1qP17Cc/cZbp+z3+obFIq3d1U7R5gRXxVR+bo6r6Ud+4gVbn+au0ijsAEDv9vJMWWrkaVWr8T+GScAQK/EVC9H2z49Th9s/4Q3depaUQZ+xLR3t052CE+j+uiS5VK9pRtcPu72W9dLQHt8X+PRaW1HV/7k2830W0tqlLz+uregKiOL/tpCxFtCOmdO3dSu3btqGHDhqiR9nFLcg30tm3baMWKFVS3bl0I6IhuW6FdjIX0nox0urZiM6qUUhM10j7wcQ300cx9tOvYRqqdmqZcQIsNMCaG8vP1797AQjrn8HIqW+tPVLJCK9RI+1gvXAN9/vgaOrX3Q0qs0h4COrQtCWdbRGDGwk2UWjaZmjesbtEVCg8bqE+02YI7cPBhtLXjn70z1hFz/LcLbdh2gDJOnaWB96t982HFfq99OYc5eFzasWbNGtqxYwdlZWVFOq7aX69UqVJUr149atWqldYlHGaQVrwz1D5QvznIpR0/7VtFB07tpJxL5+3idsT8TIwvSdXL1qUba7axrITDik3VKkBc2pG5/W+UfXQVXblw0qrL2HbcuBLlKKlSG0pp8FeUcNg2is5zPCMzh6b++390Y6MadN21lZw3QcUz+mXXUfpp63564sHrKTVF7QONVuz32j9YqDg+GE4zAlYsapVTdLPIV8lR17EQX10jA79AIPIErNoP9h87R7O//IXSalekltdFvltH5EmGd8V1v+yn9D3HqPfd11GNiqXDG6QIKyviCxGtPEwYMBQCuoto3f0LhTXOBQEQAAEQ8E/Ayv3+1Nlc+vDbX+nCJaJWN9SmMslJCMVvBE6fzaY1P++hEvFEf+pUn8omJ9iGja3KOWxDFY4GTcCKd4ZBXzyIE63cVIO4PE4BARAAARCIEIFI7Pff/r/2zgQ8iirb44c1CyBhFQibLCbiAC4RfYAoAoJPP3FYFFlGeCgBguFFCDgwBCMjIyAyIvDEmTydQRTZFB6LDIsICU8xKsuTL5E9kGWQkLBlE8z7TjG3uSk66UpXVfft1L++L5/SfZdzf+f26X+dOlX93RnavO8kdb2zBUXd3Zpq16rho9WpN03JL9cp9ccMOvhTFj3Z/Q7qc7/v6satohEwNxZatWCMAwKVIaC6yK/MWtD2VgLwL3YFCICAIOCreMBZ6R2pZ2jf4Sy6JyKcOt/ZnG6rEzjZV7M75tLVIjr8UzYdSM+k7p1bUN+oVj7JPtvhX4hos7sB/UEABAKWgC8yTwELB4aDAAjYSuDn/EJKOZRF+/4vm8Kb1qeObZpSx9ZV99dJj2acp6Onz1HmuYvU/TfNqUeXFtQkzNqbBytymB3xHuUctn5EMLgnAnacGXqaE++DgCBgR1AFXRAAARCoDIFfrv1KqWn/pNS0c5Rx7jJ1aNWY2rZoqP1Vr865zsA8fv21lE5lXdD+jp05T62b1qOoyKYUFXk71apZ3eeLsiPe48ZCn7sRE8oE7NjUVhKGyLeSpnpjwb/q+QQWgYC/CKgQD7jU49Dx83ToeC4dz8ynts0bUIum9bW/Zo2sf2KF1axzci9T1rmL2t+p7DxqHx5GXdo3oi7tG/ukZKOi9djhX4hoq3cQxqsUAdVFtOr2VQo2GoMACIAACJRLQLV4X1h8jX46k0c/ZeTTscyLdC6vgJo3rkeNG9SlRmF1qFH9UO0pH/64OZFvCuSnauReLKDc/Kt0Pu8KZZ+/TE0bhFKH8Pp0Z+swurNVAwoJqlmldxzKOaq0e9VfnB1nhlauWrWgauXaMBYIgAAIgMBNAqrH+6Lia3T6n5fp7M9X6Oy5K5SdW0A/5xVQ7do1KKxuMNWtE0R1QoIoNLg2hQbXopCgWhRUuybV5r+aNahmjepUg/+qV9N+rVUc/Kut138tpevXf6Vr13+lkmvXqaTkGhWXXKPC4l+ooIj/SuhqYTFduVpM+VeKqKTkOjVpEErNG4VSy6Z1qWWTutTm9noUXMVFs/7zghsLEUFAoAICqot8OM8cAfjXHD/0BoGqRCBQ40H+5WLKvVREXAqSf6WYLl4tocsFJXSlkMXvNSoquU6cOf7l2nVNJLNgLuU/ImIRWK16NU1Ys8iuVbOGltkOrl2DQoNrUt2QWlQvtDbVr1ObwuoGaSUZjW4LprB6QQHnejv8CxEdcNsABoMACFhFQPXMk1XrxDggAAIgoCdQWkokJaSrPCA74j3KOar8tlF7gXacGaq9YlinEgE7gqpK64MtIAACIAACNwjYEe9xYyF2l18J2LGprVwQRL6VNNUbC/5VzyewCAT8RQDxwF/kfTOvHf6FiPaN7zBLOQRUF9Gq24eNBQIgAAIgYA0BxHtrODppFJRzOMnbCq7VjjNDK5eJoGolTYwFAiAAAuoSQLxX1zeqWoYbC1X1DOxSgoDqIl8JSAFsBPwbwM6D6SBgMQHEA4uBKjacHf6FiFbMyTAHBEDAdwSQefIda8wEAiAAAv4kYEe8RzmHPz2KucmOM0NgBQGjBOwIqkbnRjsQAAEQAAHfEbAj3uPGQt/5DzO5IWDHprYSNES+lTTVGwv+Vc8nsAgE/EUA8cBf5H0zrx3+hYj2je8wSzkEVBfRqtuHjQUCIAACIGANAcR7azg6aRSUczjJ2wqu1Y4zQyuXiaBqJU2MBQIgAALqEkC8V9c3qlqGGwtV9QzsUoKA6iJfCUgBbAT8G8DOg+kgYDEBxAOLgSo2nB3+hYhWzMkwBwRAwHcEkHnyHWvMBAIgAAL+JGBHvEc5hz89irnxdA7sAb8SsCOo+nVBmBwEQAAEQMAtATviPW4sxGbzKwE7NrWVC7Lj8o+V9mEscwTgX3P80BsEqhIBxIOq5M1b12KHfyGiq/aeUX51qoto1e2ryMFz5syhhIQEV5Pk5GTq0aOHqT2Rnp5Ozz33HB08eFAbJzo6mhYtWkQhISGmxkVnEAABEPA3ATPxPiUlhWJiYujTTz+liIgIny2lsLCQZs+eTYMHD9b+u23btjJzd+3a1TKbVq5cSXv37q0w5ufm5tKkSZPotddeqxQH7jdixAiX/fL3FbPt2bOntq7+/fsT29GoUSOfMa5oIpRzKOEG5xphx5mhlTTNBFUr7ajsWCygMzMzXcFOiN+lS5d6LaTdjaGfp7J2oj0IgAAIqELA23gvhCyvg0Uri0FfHRyXk5KSaPLkyTR27FiaNWuW1zHek812imj+LmnXrp3GjtcUGxtLixcvpsaNG5cR5UZs8LQOK9939I2F7IyRI0dqPMXZWuvWrSkuLo7uu+8+WrZsmZZx++ijj1yO5bOrbt260SuvvKL1YVHCzuezv9dff13bwHzIGTv5zInPqJYsWaK1WbVqlWteX565WrmBqvpYqot8d/w5oPMefvjhh8sEc96nfPAe1Z/1y3tXPuvn9iIjwK/zGHIWQA52gbiHA9G/Vf0zh/WBgL8IeBsPhJAdPnw4zZs3T/uO50yp/sodr4uv3s2dO5dmzJhBo0aN0gSvnL3lNiwg+WBRz/H2/PnzriuA+kwsx+Vdu3bRxIkTtXhfnoiWRar4jhDzlxfz2QbxHuudxx9/nC5duqQlZwoKCspkjvk7ZOrUqdp3z/Lly13ahkWwnGGWv2uEn3n9M2fOpDfeeMOVYRb2tm3bVluf0FbeZrp5Lm/9W9F+dKyI1gsCITDEJjh16pRr84ozIgbJl7Lj4+O1TcF91q1bp10qERtfnDnx+7xBRTuRFfz++++1yxIsTFio84YLDw93bRB/BQ/MW7UIiBNEdwFLL7JlISzvYxbF8lm/CJo5OTmWXR70N3VvM0/+thvzgwAIqEOA4yQf4vv+sccec5sNFsJw0KBB2nd/eSKadYa4aigSHkIc66/+8b95vsjIyApFtMiWc7aaRTlrHH3WVx/zMzIyNM3Dtgi9wusUJwEiUVNe5lgkJd21qyjpohf5sqd5Lk5mihOVyuwCO+I9yjn+5QH+EJw4ccJ1JiVn8cTGj4qKcl1iEJuN+4jMnqgD4iFlJ8sbjDevnM0T84qzrMpsiKrQ1o4zw6rAxYo1VJRtlsev6MyeTzZXrFhRpgbO3RWcQMxCi0xPaWmpFbgxBgiAgAMJyOKU46DIDOu/0+UrgXqR6C4TzQk5MZ6sGWQRybhFBleIeH1NtHzfCvflumkWk+WJUDnmc9JPjv/uvg94Xtl+ffmF0e8a0a68K6n8vtkrn7aI6FKHfoMIR/FlB3HIlyPEGSK/J4toWRzLAljeRHqhrH9P3pROF9F2bGor43hVEfn6wKS/fCfffKK/IbGimwfdlXhYyd/usaqKf+3mhPFBwAkEvIkH7ko29CUX+jpeTyJa1hn6WM1+EPGa/5/rodlucaXQU020XNYhfFpezF+/fn2ZGwn1Alvc7CfbpBfRFX3XuNtT7uzTC3Vvkzbe+NfTvnfs0zn0m7q8TLQsPjgTbUREM/SKMtEQ0Te3peoiWnX73H3A3dWXcTuxx/W1cxWdAMpBkwOqyHaIec3Up3kKTngfBEAABHxJwJt4L2eYZVEqbpJzl73Vi2h9SZ1eROuvBop55DISfdmHO25sy4YNG7S3uKzDXabbSCaahbp8E2N5mWhRDy2Evafvi8peFfXl3ihvLseWc7ir9eQCf1ETzcC4eJ5rguSaaCMiWmyc8mqiIaJvbkc7zgyt/GB5E1StnN/bsfSBXQRY3pMDBgwoUzvHn4UFCxZodc7yVZTQ0FCtbs/dZ0FkArgv72eVHjnkLTP0AwEQcDaBysb78oSr0BfPPvsszZ8//5b4KES0uB9KjsH6JJx+DhFzOQP9zjvvuMSwJxEtJ1c4zosMNpdsiHIRfcyXs9tyTbReRMv2y5lovYiW23mbTVZthzr2xkK5XpQvvUyYMIG2bt3qKpjnzS2esSueTqAvaC+vnIM3R0VP54CIVu1jUL49qov8ikjqL9GJp8xwH7mumUuaOJCywBaBUtxdzevnp8iUd7e5as/srOzOCmT/VnataA8CIFAxgcrGg/LK2cT3/8CBA7WndsmHiJnyEzfefvtt2r9/v3YFWy+i+d+ynhClHCxQ5Sda6O+BkefcuXMnrV692nUjo/gOkO8DKy/my+UY3ObYsWNa+QhfmRRPN3P3HfL1119riZnU1FS37dz9ZoHdmejK+tfI58WxIro8OBXdFWoEKNqAAAgEDoHKZp4CZ2WwFARAAARAQCZgR7x3bDkHRLQaHy47zgzVWBmsCAQCdgTVQFg3bAQBEAABpxGwI9479sZCp20eVddrx6a2cq0Q+VbSVG8s+Fc9n8AiEPAXAcQDf5H3zbx2+Bci2je+wyzlEFBdRKtuHzYWCIAACICANQQQ763h6KRRUM7hJG8ruFY7zgytXCaCqpU0MRYIgAAIqEsA8V5d36hqWbVHH320dPfu3dpdofxLNnywsJHvEsXrN577DA72cFD1wyE+C/C7PX5XLc6ovA9hGwiAgP0E5KSOavEJ9lirT63aTSjnsIokxgEBEAABEAABEAABEHAMAYhox7gaCwUBEAABEAABEAABELCKAES0VSQxDgiAAAiAAAiAAAiAgGMIQEQ7xtVYKAiAAAiAAAiAAAiAgFUEIKKtIolxQAAEQAAEQAAEQAAEHEMAItoxrsZCQQAEQAAEQAAEQAAErCIAEW0VSYwDAiAAAiAAAiAAAiDgGAIQ0Y5xNRYKAiAAAiAAAiAAAiBgFQGIaKtIYhwQAAEQAAEQAAEQAAHHEICIdoyrsVAQAAEQAAEQAAEQAAGrCEBEW0US44AACIAACIAACIAACDiGAES0Y1yNhYIACIAACIAACIAACFhFACLaKpIYBwRAAARAAARAAARAwDEEIKId42osFARAAARAAARAAARAwCoCENFWkcQ4IAACIAACIAACIAACjiEAEe0YV2OhIAACIAACIAACIAACVhGAiLaKJMYBARAAARAAARAAARBwDAGIaMe4GgsFARAAARAAARAAARCwigBEtFUkMQ4IgAAIgAAIgAAIgIBjCEBEO8bVWCgIgAAIgAAIgAAIgIBVBCCirSKJcUAABEAABEAABEAABBxDACLaMa7GQkEABEAABEAABEAABKwiABFtFUmMAwIgAAIgAAIgAAIg4BgCENGOcTUWCgIgAAIgAAIgAAIgYBUBiGirSGIcEAABEAABEAABEAABxxCAiHaMq7FQEAABEAABEAABEAABqwhARFtFEuOAAAiAAAiAAAiAAAg4hgBEtGNcjYWCAAiAAAiAAAiAAAhYRQAi2iqSGAcEQAAEQAAEQAAEQMAxBCCiHeNqLBQEQAAEQAAEQAAEQMAqAhDRVpHEOCAAAiAAAiAAAiAAAo4hABHtGFdjoSAAAiAAAiAAAiAAAlYRgIi2iiTGAQEQAAEQAAEQAAEQcAwBiGjHuBoLBQEQAAEQAAEQAAEQsIoARLRVJDEOCIAACIAACIAACICAYwhARDvG1VgoCIAACIAACIAACICAVQQgoq0iiXFAAARAAARAAARAAAQcQwAi2jGuxkJBAARAAARAAARAAASsIgARbRVJjAMCIAACIAACIAACIOAYApqITk5Opu3bt1NOTo5jFm52oc2aNaN+/fpRz549DQ+Vn/4XunBoIZVcTDfcx+kNa9ePoIZdplBYxEuGUew7nE07vztD5/IKDPdxesOmDUKpz/2tqHvn5oZR/JCRTPuOb6MLV88Z7uP0hg3rNKXu7fvTva2Nxw2nM8P6QQAEQEBVAtX27t1bumPHDhoyZAi1a9dOVTuVs+vEiRO0du1a6tu3ryEhzQI67+Bb1OzuaRTS8B7l1qOqQYUXDlDOj/OpQdephoQ0C+gd352lR6I6UIsmt6m6LOXsyvr5En2Veoz63t/SkJBmAZ1y7Avq0voRalyvhXLrUdWg85ez6FDGV9SjwwAIaVWdBLtAAARAwCCBagkJCaVDhw6FgDYITG7GQnrNmjWUmJjosfeJNZHUvFM8BLRHUrc2YCGdfWQBtRua5rH3nA/3U6+ojhDQHknd2oCF9J7UozRrdDePvZd+OYs6t+oFAe2R1K0NWEgfPrOHYnrP8aI3uoAACIAACKhCoNq4ceNKFy1apIo4R/FZAAAKUUlEQVQ9AWdHXFwcLV++3KPdaX+tRpFPpnpshwbuCaRtjqLIF0s94nl50W6KHf6wx3Zo4J7A4o/30rtxj3rEM2dTNA1+INZjOzRwT2Ddt4tp1lOe4wb4gQAIgAAIqEsAItqkbyCiTQI02B0i2iAok80gok0CNNgdItogKDQDARAAAYUJQESbdA5EtEmABrtDRBsEZbIZRLRJgAa7Q0QbBIVmIAACIKAwAYhok86BiDYJ0GB3iGiDoEw2g4g2CdBgd4hog6DQDARAAAQUJmCpiD59+jTt2bOHRo0aZXrJaWlpFBISQmFhYbRq1Sp64YUXKDg4uNLjXrx40VR/TxMGqohe9P7H9O99elBE+zaelqjE+yqL6KKiQpqbMIVW/f39MqyG/W4cDR89nqa9PJrSfjzkem/Vxj10X7fu9P3+fTTs6V5l+oj3/AXdSSI6Py+fVn2wip7/j+H0yX9/TMPGDKOwBmE+QQ8R7RPMmAQEQAAEbCWgrIhesWIF9erVi9q0MSfyIKLd7x+IaHs+VyyMz545RU8PHq5NcPJ4Ou3esZXGRP+n699rVn5AsdNm05FDP5Rpm5+XS4m/j6XY+AS6o32EPQZ6GNWJInr0xDEUHBzkU94Q0T7FjclAAARAwBYCpkU0i9Tp06fTkSNH6JlnnqEmTZpomejNmzfTvHnzNKP5/SeffJI4Ux0fH6/9qAv/WMmCBQu0TLPoL9qGh4dTbGwsderUiWbOnElbtmyh3r1706ZNm2jixIlaRpqfiPHggw9SZmamax5uz3MGBQXR/PnziZ9/zc9xvv3227VMNme3eVw++PVp06Z5ld2WPeGrTHTKtwep58Cx2tSvx4+nWXEvEr+2YdtX9I/dX2uvL/3TdJqz6K+0bff/UvKGJOrxQNcym2bl+q00ctIs6v/ov1GXTh1p7PMDqXHDMBoR8wetD7++cukfKTQkmOJmL6TlK9Zr/T9aModGDHqCRH/5Nbbh3aRP6dON/3C1jeraiZI+2UCJU6MpJDhIs+mxng/cYk9ldrTKmWh5HUZE9PGj6dR3wNNaJloW3DzOxnUfa8MJEV4ZRla09ZWI5izwtInTKeXLFOrRuwfNX3YjViS9m0Q5WTm05fOtNG/pm3T29Fl6d/4SennaJBr/yvgyS9y0bhNNj3lVe02McfLoSVqZtJK2bvhCe53HeGrwU+SuLb+vz0Tzv3k+PsScP+z/gUY+fePqmjs7vOEOEe0NNfQBARAAAbUImBbRQszec889mnA+e/YsDRgwgNatW+dW8LJA5rbiyMjIoPr162t/LLJFP37+MmeiRTnHsGHDKCkpiQYPHqx15XZjx46l7OxsioyM1F6ThTX/m4X7gQMHaOPGjRQdHU0LFy6kmJgYLbvNtoo2ZlziCxGdm3eRZr65lN54NYYaNaiviVk+2rZqQSvWbqZFiVPo+8NpmlhlEZx27BTtSv5WE9riSD9+2iVsCwqLaNKMefTa1GhavXG7S+CKNiyYuX/cuBvZVD7k/rIw5veEDRmZOdocr04aTW8u+VAT6XzIgtpb1oEsoiePe75MOcfkaa9RzCt/cCui3Qlrb5l5089XIvq9t9+jB3s+SPd2u5dOHj9F61euo5EvjaK3EhfQxPgYatAwTBPZE+LG0x0d76B3/rSYJv8+1lVuUVRUTKeOnaTI39z47Ivx+P83rv0fmv76dMrOzNbGfTH2Jco+m3VLWx5XFtFP/PYJ2vrZVpIz0yz25blZjPPBwtzMARFthh76ggAIgIAaBEyJ6KKiIlq2bJkmbFmYiprozp07uzK+YpmcbeafyBZZZ5GJ5n4sfleuXKk1FRlivYgWmWTOPItDn93m1xcvXkzffPONlqVmsS7KOThL/vnnn7tqq1lcczsW12YOX4hoFrDPRf+eDh75yWUqZ6M5u3vqTJaWJeaMsBDO3H7LzpQyIlh+nwfhcg7u/19/W+PKOPPrIhu97MM1lLDgPW0+zkSzYBeZcGGEeF3YwGKf+02dMEoT9fy6ONhGM0cgi2i5nIPrpxfPT6ShI8ZQXm6uIzPRLIDnJcyj1X9f7doSnEmeOXeGS8QWFRa6xGtwSAh9uOyDW2qWWXxPGTeF0n9Mv7FPN67Q/pt5JlMTuaLmmUUxC2p9W72I5pro5F3Jruw2Z537DxxQph+Pb0U2GiLaTDRAXxAAARBQg4ApEc1LkDPRQpjqM9HuliratmzZkkR2uqJMNIvo4uJiLRt95coVTQzrbzp0l4kWY44YMaLKZKIFTxbGRkW0nEnm/rPfWq5liuVMtDs/iSz4mOeepnVbdrlKNNzZIItoznbPW/o3unT5CsWNG2H6BsaqJKKTli2kEWMm0Imj6Y6tiZYz0WIvyaLXk4iW23I9s5yJ1ovo3z4/iD77ZL0rwyzauhPR4sZCFvpL5y+hfk89Tp+t+qxMFtyK0A0RbQVFjAECIAAC/iVgWkTLNdF33XWXlm3W10TzEjlDLNcvi0x0Xl6eK2v90EMPabXSXKbBT+TYuXMnJSQkUEpKiiuDLH4dkDPInAkXtc88BwtlFuV9+vRxvc42RUREaKUlVaUmWsu6/Ss7bFREcx9R09y1050U2aEtJcZHl6mJ5jbRowbRhBeG0guxs12Zb3c10dyW6675cJeJFiUf/L5cVuLtdg9kEa0v5yjv6RyRd3ehd97/xG83FWqfUx/9YqFcE83zPvu7Z2l83HiX2PUkovXZbM4Ot2zTksJbhd+Sieanb/x57p9dmW/RtudjPW8p53hjxlytTpsPdzXR/Lqos/Z2L3M/iGgz9NAXBEAABNQgYFpEq7EM/1nhi3IO/61OnZkDRUSrQ8w7S3wlor2zrur0goiuOr7ESkAABJxLACLapO8hok0CNNgdItogKJPNIKJNAjTYHSLaICg0AwEQAAGFCUBEm3QORLRJgAa7Q0QbBGWyGUS0SYAGu0NEGwSFZiAAAiCgMAGIaJPOgYg2CdBgd4hog6BMNoOINgnQYHeIaIOg0AwEQAAEFCZQLSEhoXTo0KHUrl07hc1U07QTJ04QP4ovMTHRo4En1kRS807xFNLw5jOyPXZCA41A4YUDlH1kAbUbmuaRyJwP91OvqI7UosltHtuiQVkCWT9foj2pR2nW6G4e0Sz9chZ1btWLGtdr4bEtGpQlcP5yFh0+s4dies8BGhAAARAAgQAmUG3v3r2l/Mt+Q4YMgZCuhCNZQK9du1Z7rjU/kcTTkZ/+F8o7+BY1u3sahLQnWNL7LKBzfpxPDbpOpbCIlzz23Hc4m3Z8d5YeieoAIe2R1s0GLKC/Sj1Gfe9vSd07N/fY84eMZEo59gV1af0IhLRHWjcbsIA+lPEV9egwgO5t7TluVGJoNAUBEAABEPAxgWqlpaWlycnJtH37du3nuHEYI8CP4uvXr58hAS1GZCF94dBCKrl448chcHgmULt+BDXsMsWQgBajsZDe+d0ZOpdX4HkCtNAING0QSn3ub2VIQAtkLKT3Hd9GF66eA0WDBBrWaUrd2/eHgDbIC81AAARAQGUC/w/8PysaGJC5xwAAAABJRU5ErkJggg==;" vertex="1" parent="1">
          <mxGeometry x="10" y="10" width="618.96" height="370" as="geometry" />
        </mxCell>
        <mxCell id="sVx-6X5LhX6Xo08L69X_-13" value="" style="rounded=0;whiteSpace=wrap;html=1;strokeColor=#330000;" parent="1" vertex="1">
          <mxGeometry x="450" y="406" width="670" height="360" as="geometry" />
        </mxCell>
        <mxCell id="sVx-6X5LhX6Xo08L69X_-7" value="" style="shape=image;html=1;verticalAlign=top;verticalLabelPosition=bottom;labelBackgroundColor=#ffffff;imageAspect=0;aspect=fixed;image=https://cdn0.iconfinder.com/data/icons/pinpoint-interface/48/location-128.png;dashed=1;strokeColor=#0000FF;" parent="1" vertex="1">
          <mxGeometry x="510" y="456" width="20" height="20" as="geometry" />
        </mxCell>
        <mxCell id="sVx-6X5LhX6Xo08L69X_-8" value="Azure Cloud" style="text;html=1;strokeColor=none;fillColor=none;align=center;verticalAlign=middle;whiteSpace=wrap;rounded=0;dashed=1;" parent="1" vertex="1">
          <mxGeometry x="720" y="736" width="130" height="20" as="geometry" />
        </mxCell>
        <mxCell id="sVx-6X5LhX6Xo08L69X_-2" value="" style="shape=image;verticalLabelPosition=bottom;verticalAlign=top;imageAspect=0;aspect=fixed;image=data:image/png,iVBORw0KGgoAAAANSUhEUgAAASkAAACqCAMAAADGFElyAAAAY1BMVEUAvPL///8AufKl3/kAuvIAt/Gh4Pmc3/lkzPXE7Pts0fZCxvQAvfI1xfQfwvPq9/2P2/hSy/Xw+/6u4vnR7vva8/3h9v30/P5LyfR81fe+6vu25/p00/bV8vzM7/yo4/mJ2fiWfsh5AAALJElEQVR4nO2dbWOrLAyGLQf6qra6tto37f//lcdErVqpRQsRt95fnj1bd4aXECAkwZl9pSZn7AZMRhaTCo+Hw/58Xh0Ox3DstszsJBXt01PgM84e4tyNT/NkVGC2kdperr7IyDgtcc6Ev06PY7XMKlK3uyeFVMcl/FMySuPsIXXcZQOui9KDFnNON/r22ULqHAslTAUs4afULbSDVOozdUy5mHOPSNtoA6m525tTzmpH2crxSZ2HcUJWfE7XzrFJHWMxlBOy8skmwpFJLdSmuy5Wa6Kmjkpq6w0eeDVU7p6ksWOSunzanwqJO0VrRyR1+shC1cUCggXDeKRiTT0KxP2t8faORSp0NYICVsb3NyOR2rpaOWVippcL45DSDypDtTLb5lFIhfo5OcZ71RikIt8IKYcb9fKNQWqj15hXck26j0cgtTYFyuGewWbTk0q1LTglqK7m2k1O6qhhq/da4mys4eSkPJOgMhkzVdSkdka7VDb+lqZaTkzK7NgDGRt/xKQCY/PeQ66hptOSSgzOe6X4wkzbaUmZNuc5KjPOKlJSK+NWCknVD7e2h/MlTdNLcvyUHympmAJUZakOi8DlECiTiTHHv14+WUJQkjoQWCkQg5P4490VTwc/nItNOrhrUZI6mZ/4cnmzJHgR5sD5aaAjmZIUiZVCHJuOP5WxGtSvtJM6nBenZexlitf3eVJ7gWcyUm/E+M+AB9NKKtnFTLBHsBgYUuEu54WDzZy3pbfEgGMvfaRWa1d6dJ7h8ncAi5xHh7jb+yxHE6loJ8dUiLHN+WbL4MvFLmOQCk/iLYaPQzV0S/SM6tNB6m4dBSWJfnb9c1JnzafBdOp3QvgpqSggWnibEOtz7PUhqcSZaodC+WSk5nbNZ73FTkSkrrQjj+ufOZh6PN8npJZUPQpyjbi7uS7Oge5/Wn38fUCKwCcO2yHuB9d/lyJxban7LzDlpcJwUkuToACRcIPTfNWcnrSTUj+gGEzqamTooX/S8YN7mkhncP2klHc1Q0npnvXQ7+B4wf203Hbs8/WTclSjPgaSSrSByia0zBZ56/tPgoiSzkh8A6RUl5/DSEVa2gjHAN56d9nXDwJW5KQU85SGkdJizf3zQXJWQk5KdfgNInXWsuLcSP9telJM7WxrECk9kb/WkFKL+RhC6q5nJWULKa6WdjOAVKhp3rOGlFrI1QBSug44bSGluPfrTyrStZSyhpQag/6ktMUfWkNKGCKlLeXFHlJKy4TepPTFQP12UvrOzO0hpfTgvUnpa6A1pPhJ5TirLyl9TgR7SGFNnYNuUprW5yB7SDlQU8d749LrS2qjr3FWkXKgnkcnq76kNLo6bSMFrDo2yz1JHX41qYxV/DIKtCcpXWUzQHJS5N7hpjh7lSLRk5TOVCp/vmhrftrIvl3+VKOZfCUWyxeiPUnpDJT25zKdNqn0+6iUgJTDuXR51ZOUztNuK0cfSshGYE9SOt+pjRa9EJPkM/ckpbPSgcWkHB58SSmqjUqVVBSC/g6pNqr3pKL9/Br7bh5boVN2k3L4U0PekLrtPPamFPBgWU7KYc3TrS5Sx537PiJ/uGwn5YjGjvk1qX3AzEYnWk+qGQbzilSyMZ64YD+pxkmgnNSWIh5/AqTqFXWkpBaGbHhTEyDliKpOmoRU2JWbqlFTIFUbf21SK5IO5UyEVFXRo0VqQZa3MAlSDi+9Vc+kTnSZMNMg9Vh/PpFaE6YMTYOUIyIZKUpQjr86SCLPrSNVhuw1SBEOPRBjzN+sF5fDqFHWb1XUHqqTGiVbDyL3uQth6Tc8QLLBO/zUwvSZFEUZrdfNgWuwuL++34OuGJ0xSBUB6xUpPXkLHwqcYIJ7y/vPSpo+MwopdmiSIkjXUxfmG/mYtRaNT2rXIPVjY0oxVNiCC+kWq9uIpPItTUnKirH3SpBdK9z4ulhpz65VkjjWSF1tGnsvZCBjW/EPpxWp44TrQ5gXZkEUpIwmFf8CPUiZL3I7bYFD3ZmMlRpTUCsHSUVfUN2C8DMklX5JdYufClJEtVvBeTDRdxLnpEKiJUKcJInpSvKG5OWkfmheNOb7Wr0XeC03J0VUaJNPeJp1IyRl4JIqiXheFUtj4g2lkNSWpu2iyOExdNWTYSEpmvru6DkEz+9iksMPSS1oKuHD1cVg1KlmWr1CUjRly+Es9iwC3c5VotCAfO4j8Y6h4yLgwKs+2ploCn6U/af+i6KMC8y/zxwvLk0dc+PrNfAJlrM5KZILO2CPGfJ8DFZzrbd9UjYzxuE2rDYN/B5ut/iVn30/cNguKtc1IihCdg5r4wM6X3mSTEZusb0Eu17lnbYKGqXMwQH6+D309uNX4MxeFjcUAal62TbjReoDJEWxnMIHhs4La4XKG/ZMCtIHu0gFRVWtjFR+AeTtfE4IVmlw4k5ECnz26IHGU/5H9o3rPYSprdC9O0llM3X2mWWcV1de+YJz4UP10rtRVGA0iEhtHoPOlW80MaUAdzpdpFazwiRhWH15ZyKeXBq16nDZK42dQpuSvxHsDO0OkG2silJpXaQqOGH9lMQzvZ+EP0dk0aOHKcHe0HoseGnF3b+dpIr+X6w5yg/B2Da603DzEwfzfjwMVi7pQJDN7WlaRx7FRe5dpPbF7/FLY7sK/2ty6Y/tdyicLtBjHo4pvOyl2Y85mLHSx9dFqtx4sW1m7AQrJXZmDRW8CZp9Hzzkj+C5GFiVeeO5YOX+6GZdpMqNF1i16PhYr2KUh8GJCYsJOXoz+6XCxPpV+lMILvFq1NrD5eTjQTtXnkVTZfXaDJpbjEh19FaLkEpW36m2TUYrUJkA+0jlJRQc6ZytV+2c3sZUlY/NxqdVSC0qO4Uy1362LUkZnvzwpOGnpn/b8unxx8em21WFFKw66A4p41lJyrBJh8VIUtpzDE+EHU25TRbgXai7M4LGWMSZEr+qk4K3THZ7VLEVB1Jm72rEk4anpebsscLGXUyjqJU/qxdFEUcZKV6t+c2rqMrvGJ428l3Z0ykfjsd8zMN83wxaZo13h94G/KpBaml+KJQqc4yQlMZCZW3Bsz75j/BBL+jfTNoYwY2yKcfmQUoqN7Kbaow65mwtn9VImQyfwsi/50A2WGoCIEzf2YjGDIajNcRL7ni2nY6kpPIU/TU6jjPDtwyNZR087gzO46cMzn4skhTgRSfxleMuJtzXBA+c1ytPl3GwiGbbk5RUkXd+3AVxfE1Dg0PxcXdITsqcdzV3JLVGNwzJbP/SKiCGy6x6kpZ/l5N6vtPDlAGp/kwR52nMpjMIJG9XGMIpzW/fSoWuGb4ps++P/ov1FPzL12rpfwtMverqrRWkzHWqjed5kvftg0O45hwufcT5T0WQJkmSQoY9fBC/Bx9uLAw4C+YJfOzUeXPnRxLHZ1I0R1k9xJWi0uBTpoqpgOpF80pS+0megRsWj2dtUrTpolNRJCMVUW0OpiPRuDO5ylobNRHSRj1dA1zLGTV7uDg5iadboOp5yFblQo6t1hWkjdx2/4uqlGitihukwq9VLyTa9xo1K0tsx26hJZIViX2qVhJO9mpxnZIWHn6ugBN5f34G5L70lsh2/anlH19XCUnNYTmpyV8x/pGY++pGFVmdvOOfHYGctee8LlJUJQWtkwg67rF9Uc8zWk81Z3GwOItvchidpLIheDVcItYucb5+c4tRR93hcOeKv9GxuNikHRd7vyWV6QYu6l9NC2rsBOnLS2aUSWU6plcPU605+1XCMkSOt553Gqc+pEDRdn9J//0upT/ng7QY2Eekvpp9SanrS0pVX1Kq+pJS1ZeUqr6kVPUlpar/EiKvHKdSXhEAAAAASUVORK5CYII=" parent="1" vertex="1">
          <mxGeometry x="469" y="380" width="69.88" height="40" as="geometry" />
        </mxCell>
        <mxCell id="sVx-6X5LhX6Xo08L69X_-4" value="" style="rounded=0;whiteSpace=wrap;html=1;dashed=1;strokeColor=#0000FF;" parent="1" vertex="1">
          <mxGeometry x="499" y="446" width="580" height="280" as="geometry" />
        </mxCell>
        <mxCell id="sVx-6X5LhX6Xo08L69X_-5" value="Region: Brazil South" style="text;html=1;strokeColor=none;fillColor=none;align=center;verticalAlign=middle;whiteSpace=wrap;rounded=0;dashed=1;" parent="1" vertex="1">
          <mxGeometry x="520" y="456" width="130" height="20" as="geometry" />
        </mxCell>
        <mxCell id="sVx-6X5LhX6Xo08L69X_-15" value="" style="shape=image;html=1;verticalAlign=top;verticalLabelPosition=bottom;labelBackgroundColor=#ffffff;imageAspect=0;aspect=fixed;image=https://cdn0.iconfinder.com/data/icons/pinpoint-interface/48/location-128.png;strokeColor=#330000;" parent="1" vertex="1">
          <mxGeometry x="502" y="455" width="28" height="28" as="geometry" />
        </mxCell>
        <mxCell id="sVx-6X5LhX6Xo08L69X_-18" value="" style="shape=image;verticalLabelPosition=bottom;verticalAlign=top;imageAspect=0;aspect=fixed;image=data:image/svg+xml,PHN2ZyB4bWxucz0iaHR0cDovL3d3dy53My5vcmcvMjAwMC9zdmciIHZpZXdCb3g9IjAgMCAxOCAxOCI+PGRlZnM+PGxpbmVhckdyYWRpZW50IGlkPSJhIiB4MT0iLjUiIHkxPSI5Ljc3IiB4Mj0iOSIgeTI9IjkuNzciIGdyYWRpZW50VW5pdHM9InVzZXJTcGFjZU9uVXNlIj48c3RvcCBvZmZzZXQ9IjAiIHN0b3AtY29sb3I9IiMwMDViYTEiLz48c3RvcCBvZmZzZXQ9Ii4wNyIgc3RvcC1jb2xvcj0iIzAwNjBhOSIvPjxzdG9wIG9mZnNldD0iLjM2IiBzdG9wLWNvbG9yPSIjMDA3MWM4Ii8+PHN0b3Agb2Zmc2V0PSIuNTIiIHN0b3AtY29sb3I9IiMwMDc4ZDQiLz48c3RvcCBvZmZzZXQ9Ii42NCIgc3RvcC1jb2xvcj0iIzAwNzRjZCIvPjxzdG9wIG9mZnNldD0iLjgxIiBzdG9wLWNvbG9yPSIjMDA2YWJiIi8+PHN0b3Agb2Zmc2V0PSIuOTkiIHN0b3AtY29sb3I9IiMwMDViYTEiLz48L2xpbmVhckdyYWRpZW50PjwvZGVmcz48cGF0aCBkPSJNMTMuMjUgMTAuNDhWNi41N2EuMTQuMTQgMCAwMC0uMjQtLjFsLTQgNC00LjE2IDQuMTZ2Mi44N2gxMi4wOGEuNTYuNTYgMCAwMC41Ny0uNTdWNi41N2EuMTQuMTQgMCAwMC0uMjQtLjF6IiBmaWxsPSIjMDA1YmExIi8+PHBhdGggZD0iTTQuNzUgMy41OEMyLjQgMy41OC41IDIuODkuNSAydjE0LjkzYS41Ni41NiAwIDAwLjU3LjU3SDlWMmMwIC44OS0xLjkgMS41OC00LjI1IDEuNTh6IiBmaWxsPSJ1cmwoI2EpIi8+PHJlY3QgeD0iMTIuOTEiIHk9IjEyLjk3IiB3aWR0aD0iMi4yNyIgaGVpZ2h0PSIyLjI3IiByeD0iLjI4IiBmaWxsPSIjZmZmIi8+PHJlY3QgeD0iOC45NyIgeT0iMTIuOTciIHdpZHRoPSIyLjI3IiBoZWlnaHQ9IjIuMjciIHJ4PSIuMjgiIGZpbGw9IiNmZmYiLz48cmVjdCB4PSI1LjAzIiB5PSIxMi45NyIgd2lkdGg9IjIuMjciIGhlaWdodD0iMi4yNyIgcng9Ii4yOCIgZmlsbD0iI2ZmZiIvPjxwYXRoIGQ9Ik05IDJjMCAuODUtMS45IDEuNTQtNC4yNSAxLjU0Uy41IDIuODkuNSAyIDIuNC41IDQuNzUuNSA5IDEuMTkgOSAyIiBmaWxsPSIjZWFlYWVhIi8+PHBhdGggZD0iTTggMS45MWMwIC41NS0xLjQ2IDEtMy4yNiAxcy0zLjI2LS40My0zLjI2LTFTMyAuOTQgNC43NS45NCA4IDEuMzcgOCAxLjkxIiBmaWxsPSIjNTBlNmZmIi8+PHBhdGggZD0iTTQuNzUgMi4xNGE4LjA3IDguMDcgMCAwMC0yLjU4LjM3IDcuNjQgNy42NCAwIDAwMi41OC4zOCA3LjY0IDcuNjQgMCAwMDIuNTgtLjM4IDguMDcgOC4wNyAwIDAwLTIuNTgtLjM3eiIgZmlsbD0iIzE5OGFiMyIvPjwvc3ZnPg==;strokeColor=#330000;" parent="1" vertex="1">
          <mxGeometry x="690" y="498" width="48" height="48" as="geometry" />
        </mxCell>
        <mxCell id="4qManxZfzn34yBkkgIPU-1" value="ADF" style="text;html=1;strokeColor=none;fillColor=none;align=center;verticalAlign=middle;whiteSpace=wrap;rounded=0;dashed=1;fontStyle=1" parent="1" vertex="1">
          <mxGeometry x="650" y="546" width="130" height="20" as="geometry" />
        </mxCell>
        <mxCell id="4qManxZfzn34yBkkgIPU-4" value="" style="aspect=fixed;html=1;points=[];align=center;image;fontSize=12;image=img/lib/azure2/databases/Azure_Synapse_Analytics.svg;" parent="1" vertex="1">
          <mxGeometry x="950" y="552" width="60" height="69" as="geometry" />
        </mxCell>
        <mxCell id="4qManxZfzn34yBkkgIPU-6" style="edgeStyle=orthogonalEdgeStyle;rounded=0;orthogonalLoop=1;jettySize=auto;html=1;" parent="1" source="sVx-6X5LhX6Xo08L69X_-18" target="4qManxZfzn34yBkkgIPU-4" edge="1">
          <mxGeometry x="450" y="380" as="geometry" />
        </mxCell>
        <mxCell id="4qManxZfzn34yBkkgIPU-5" value="Azure Synapse" style="text;html=1;strokeColor=none;fillColor=none;align=center;verticalAlign=middle;whiteSpace=wrap;rounded=0;dashed=1;fontStyle=1" parent="1" vertex="1">
          <mxGeometry x="915" y="637" width="130" height="20" as="geometry" />
        </mxCell>
        <mxCell id="4qManxZfzn34yBkkgIPU-7" value="sink" style="text;html=1;strokeColor=none;fillColor=none;align=center;verticalAlign=middle;whiteSpace=wrap;rounded=0;" parent="1" vertex="1">
          <mxGeometry x="840" y="498" width="40" height="20" as="geometry" />
        </mxCell>
        <mxCell id="4qManxZfzn34yBkkgIPU-8" value="source" style="text;html=1;strokeColor=none;fillColor=none;align=center;verticalAlign=middle;whiteSpace=wrap;rounded=0;rotation=-90;" parent="1" vertex="1">
          <mxGeometry x="680" y="435" width="40" height="20" as="geometry" />
        </mxCell>
        <mxCell id="pyuiP2n4TVAtCu8Zxtwx-5" value="" style="endArrow=classic;html=1;" edge="1" parent="1" target="sVx-6X5LhX6Xo08L69X_-18">
          <mxGeometry width="50" height="50" relative="1" as="geometry">
            <mxPoint x="499" y="50" as="sourcePoint" />
            <mxPoint x="579" y="50" as="targetPoint" />
            <Array as="points">
              <mxPoint x="714" y="50" />
            </Array>
          </mxGeometry>
        </mxCell>
      </root>
    </mxGraphModel>
  </diagram>
</mxfile>
